<svg id="Capa_1" data-name="Capa 1" xmlns="http://www.w3.org/2000/svg" viewBox="0 0 500 500"><defs><style>.cls-1{fill:#fefefe;}.cls-2{fill:#e8e9ea;}.cls-3{fill:#afcb18;}.cls-4{fill:#bfc3c6;}.cls-5{fill:#c1c5c8;}.cls-6{fill:#009597;}</style></defs><path class="cls-1" d="M499.9,250.5q0,122.7.1,245.41c0,3.42-.67,4.09-4.09,4.09Q250,499.84,4.09,500C.67,500,0,499.33,0,495.91Q.17,250,0,4.09C0,.67.67,0,4.09,0Q250,.17,495.91,0c3.42,0,4.1.67,4.09,4.09Q499.82,127.3,499.9,250.5ZM136.87,159a20.16,20.16,0,0,0-3.22,1.27c-22.14,13.53-40.52,30.83-53.92,53.27-21.39,35.81-27,74.13-17.7,114.51,7.75,33.71,26,61.09,52.61,83,24.77,20.41,53.45,31.15,85.13,33.68,19.66,1.57,39-1.2,57.9-7.2,10.14-3.23,19.65-7.93,29.16-12.62.05,14.83,0,29.65.26,44.46.07,3.84-1,4.61-4.7,4.59-35.15-.14-70.29-.08-105.44-.08q-62.7,0-125.42-.07c-3.25,0-4.48.48-4.63,4.19-.18,4.5,1.55,5,5.4,4.95q186.14-.15,372.27-.08a18.8,18.8,0,0,1,2.49,0c3.78.47,2.95-2.3,2.81-4.24s1.55-5-2.76-4.82-8.7-.34-13,.15c-4.69.53-5.33-1.38-5.29-5.52.22-19.48,0-39,.2-58.46,0-4.07-.82-5.43-5.1-5.21-7.35.38-8.73-1.73-6.49-8.85a27.41,27.41,0,0,1,2.86-6.09c3.84-6.35,8.47-12.63,8.55-20.39.23-23,.09-46,.06-68.95A15.21,15.21,0,0,0,404.56,290c-4.24-4.65-9.55-5.24-15.3-5.05-1.85.06-4.13.8-5.22-1.67-3.75-8.46-10.62-10.93-19.29-10.36-2,.13-4.27.85-6.18-.83-5.14-4.5-11.32-5.64-17.86-5-3.23.29-3.85-.94-3.81-3.92.16-11.65.1-23.31.06-35,0-9.79-10.57-17.5-20-14.69-8.95,2.68-12.82,8.55-12.93,18.69-.28,27-.09,54-.09,81,0,1.17,0,2.33,0,3.5a2.2,2.2,0,0,1-1.67,2.18c-1.18.33-1.73-.71-2.25-1.54-3.19-5.08-6.31-10.2-9.55-15.25-5.39-8.43-12-12.46-21.87-10.88-8.71,1.4-13.91,7.53-10.72,16.94,4.61,13.63,8.72,27.43,13.17,41.12,3.65,11.23,8,21.86,17.32,30.12,3.6,3.18,7.67,6.76,9.67,11.63H280c.85-4-1.47-4.05-4.51-4-35.47.08-70.95,0-106.43.07-14.44,0-23.27-10.12-23.13-22.79.39-38.13.14-76.28.14-114.42,0-48.47.07-96.94-.06-145.41,0-10.24,10.09-19.45,19.39-19.42,65.79.25,131.58.13,197.37.13A19,19,0,0,1,382,104.25V233.67c0,7.66,0,15.32,0,23,0,1.1-.52,2.91.75,3.12a17.13,17.13,0,0,0,7.41-.06c1.71-.51.78-3,.78-4.55,0-50.8,0-101.6.08-152.4,0-13.22-11.81-26.83-26.74-26.78-66.45.2-132.91.3-199.37-.09-13.7-.08-28,12.4-27.89,28.17C137.16,122.37,136.93,140.69,136.87,159ZM161,235.5c0,36,.07,71.94-.09,107.91,0,3.74.9,4.67,4.64,4.65q43-.26,85.93,0c3.85,0,4.53-1.09,4.65-4.7.13-4-1.4-4.49-4.86-4.47-25.48.14-51,0-76.44.17-3.84,0-4.93-.87-4.93-4.86q.21-98.67,0-197.35c0-3.89.94-4.91,4.88-4.9q89.18.21,178.36,0c4,0,4.89,1,4.87,4.91-.17,29.81-.09,59.62-.09,89.44,0,10,0,20,0,30,0,1.23-.65,2.74.84,3.62A5.43,5.43,0,0,0,367,255c0-42.3-.06-84.6.1-126.9,0-4.09-.87-5.21-5.1-5.2q-97.92.23-195.85,0c-4.13,0-5.19.94-5.17,5.13C161.11,163.88,161,199.69,161,235.5ZM225.5,216c12.15,0,24.29-.11,36.44.08,3.25,0,4.15-.83,4.13-4.11q-.22-30.45,0-60.89c0-3.26-.85-4.14-4.12-4.13q-36.43.21-72.87,0c-3.24,0-4.16.82-4.13,4.1q.23,30.45,0,60.9c0,3.25.84,4.17,4.12,4.12C201.21,215.9,213.36,216,225.5,216ZM65.42,49.13c-8.66,0-17.32.1-26-.06-3.18,0-3.57,1.61-3.38,4.07.16,2.17-.81,4.86,3.09,4.85q30-.1,59.93,0c2.09,0,2.86-.82,3-2.94,1.07-15,9.69-25.42,21.45-33.59,5.14-3.57,11.22-5.72,17.41-5.12,16.21,1.57,28,9.68,34,25.19,1.11,2.86,2.12,3.8,5.39,2.69,11.78-4,21.41-.31,27.9,10.56,1.37,2.29,2.81,3.27,5.5,3.26q23.72-.17,47.44,0c3.42,0,4.66-1.1,4.76-4.6.11-3.74-1.47-4.38-4.74-4.35-14,.14-28,0-41.95.11-2.7,0-4.76-.57-6.48-2.81-6.75-8.8-15.65-13.17-26.82-12.23-3.45.29-5.28-.84-7.08-3.89-9.91-16.85-30.33-26-48.22-21S101.48,27,95.33,44.26c-1.38,3.85-2.93,5.14-6.94,5C80.75,48.88,73.08,49.12,65.42,49.13ZM226.06,231c-13,0-25.94.15-38.91-.1-3.74-.07-4.3,1.29-4.23,4.55.07,3.06.2,4.68,4.13,4.65q38.41-.3,76.82,0c3.73,0,4.29-1.29,4.23-4.55-.07-3.06-.19-4.74-4.14-4.65C251.33,231.19,238.69,231,226.06,231Zm0,24c-13,0-25.94.15-38.9-.1-3.75-.07-4.29,1.3-4.23,4.55.06,3.07.21,4.68,4.13,4.65q38.41-.3,76.82,0c3.74,0,4.29-1.29,4.23-4.55-.07-3.07-.2-4.74-4.14-4.65C251.33,255.18,238.69,255,226.05,255Zm85.43-87c10,0,19.95-.23,29.91.11,4.15.15,3.59-2.11,3.59-4.61s.52-4.66-3.6-4.61q-29.4.38-58.82,0c-4.13,0-3.58,2.11-3.59,4.62s-.53,4.75,3.6,4.6C292.19,167.79,301.84,168,311.48,168ZM47.79,119c7.64,0,15.29-.07,22.93,0,2.69,0,4.49-.3,4.31-3.69-.16-2.85,0-5.28-4-5.25q-23.18.17-46.35,0c-3.43,0-3.65,1.72-3.68,4.36,0,2.83.21,4.73,3.92,4.62C32.5,118.85,40.15,119,47.79,119Zm219.72-10c7.14,0,14.28-.19,21.41.08,4.08.15,3-2.51,3-4.59s1-4.62-3.05-4.56q-21.42.3-42.84,0c-4.07-.06-3,2.51-3,4.59s-1,4.71,3.05,4.56C253.22,108.86,260.37,109.05,267.51,109.05ZM207,288c7.31,0,14.62-.19,21.92.08,4,.15,3.09-2.43,3.06-4.54s1.08-4.66-3-4.61q-21.4.3-42.84,0c-4-.06-3.09,2.43-3.06,4.55s-1.08,4.75,3,4.6C193,287.79,200,288,207,288Zm96.46-105c-7.14,0-14.29.18-21.42-.08-4.09-.15-3,2.54-3,4.6s-1,4.61,3.07,4.55q20.91-.32,41.84,0c4.09.05,3-2.54,3-4.61s1-4.71-3.07-4.54C317.07,183.23,310.26,183,303.45,183Zm147,290.89c-4.31,0-8.62.09-12.93,0-3.92-.11-2.47,2.78-2.47,4.52s-1.45,4.58,2.47,4.53c8.62-.11,17.24,0,25.87,0,1.1,0,2.13.19,2.58-1.49,1.4-5.21-.2-7.49-5.57-7.49Zm-421.86,0H26.09c-6.59,0-7.34.24-5.8,6.44,1.44,5.8,6.84,1.54,10.34,2.35,1.56.36,5.16,2.24,5.49-2.32.47-6.45.57-6.47-6.07-6.47Zm455.67,0c-8,0-10.16,2-8.3,7.65.74,2.22,2.5,1.41,3.68,1.26,4.07-.52,9.22,2.25,12-1.3s-.13-7.61-4.9-7.61ZM287.91,49.11a12.33,12.33,0,0,0-1.49,0c-2.72.36-6.4-1.59-6.48,4-.07,5.28,2.94,5,6.41,4.87a32.7,32.7,0,0,1,4.95,0c3.67.46,4.84-.94,4.83-4.68s-1.57-4.57-4.76-4.24A30.71,30.71,0,0,1,287.91,49.11ZM318.7,58c.66,0,1.32,0,2,0,3.57.22,6.4.21,6.34-4.95s-3.36-3.76-6.06-3.9c-2-.1-4,.15-5.94-.05-3.39-.35-4.15,1.2-4.16,4.32s.72,5.09,4.38,4.6A26.59,26.59,0,0,1,318.7,58Zm-222,61a30.76,30.76,0,0,1,4,0c3.53.45,4.48-1.09,4.49-4.48s-1.11-4.78-4.56-4.45a48.36,48.36,0,0,1-7.42,0c-4-.25-4,2.23-4.1,5.13-.16,3.24,1.35,4,4.17,3.77C94.41,118.92,95.58,119,96.73,119Z"/><path class="cls-2" d="M280,390.94h18.09c1.78,1.42.85,3.38.87,5.06.13,8.63.07,8.78-8.51,8.87-2.94,0-3.55,1.06-3.49,3.73.13,5.45-.05,10.91-.1,16.36-9.51,4.69-19,9.39-29.16,12.62-18.86,6-38.24,8.77-57.9,7.2-31.68-2.53-60.36-13.27-85.13-33.68C88,389.15,69.78,361.77,62,328.06c-9.28-40.38-3.69-78.7,17.7-114.51,13.4-22.44,31.78-39.74,53.92-53.27a20.16,20.16,0,0,1,3.22-1.27c.06,2,.17,4,.17,6,0,66.42.13,132.83-.08,199.24-.06,17.69,12.43,31.39,30.67,31,35.44-.66,70.9-.26,106.35-.09C277.48,395.21,279.31,394.25,280,390.94Z"/><path class="cls-3" d="M286.83,425c.05-5.45.23-10.91.1-16.36-.06-2.67.55-3.7,3.49-3.73,8.58-.09,8.64-.24,8.51-8.87,0-1.68.91-3.64-.87-5.06-2-4.87-6.07-8.45-9.67-11.63-9.32-8.26-13.67-18.89-17.32-30.12-4.45-13.69-8.56-27.49-13.17-41.12-3.19-9.41,2-15.54,10.72-16.94,9.83-1.58,16.48,2.45,21.87,10.88,3.24,5.05,6.36,10.17,9.55,15.25.52.83,1.07,1.87,2.25,1.54a2.2,2.2,0,0,0,1.67-2.18c0-1.17,0-2.33,0-3.5,0-27-.19-54,.09-81,.11-10.14,4-16,12.93-18.69,9.39-2.81,19.92,4.9,20,14.69,0,11.66.1,23.32-.06,35,0,3,.58,4.21,3.81,3.92,6.54-.6,12.72.54,17.86,5,1.91,1.68,4.16,1,6.18.83,8.67-.57,15.54,1.9,19.29,10.36,1.09,2.47,3.37,1.73,5.22,1.67,5.75-.19,11.06.4,15.3,5.05a15.21,15.21,0,0,1,4.36,10.55c0,23,.17,46-.06,68.95-.08,7.76-4.71,14-8.55,20.39a27.41,27.41,0,0,0-2.86,6.09c-2.24,7.12-.86,9.23,6.49,8.85,4.28-.22,5.15,1.14,5.1,5.21-.23,19.49,0,39-.2,58.46,0,4.14.6,6.05,5.29,5.52,4.28-.49,8.66.05,13-.15s2.61,2.92,2.76,4.82,1,4.71-2.81,4.24a18.8,18.8,0,0,0-2.49,0q-186.13,0-372.27.08c-3.85,0-5.58-.45-5.4-4.95.15-3.71,1.38-4.2,4.63-4.19q62.72.15,125.42.07c35.15,0,70.29-.06,105.44.08,3.65,0,4.77-.75,4.7-4.59C286.79,454.6,286.88,439.78,286.83,425ZM313,275.15c0,13.65-.26,27.31.14,41,.14,4.41-1.37,7.38-4.56,9.68a45.44,45.44,0,0,0-6.66,5.86c-1.55,1.65-2.18,1.53-3.47-.57-5.37-8.71-11.15-17.16-16.6-25.81-2.57-4.09-6.17-5.5-10.73-5.28s-5.74,1.95-4.36,6.36c3.44,11,7,21.9,10.3,32.92,4.55,15.22,10.66,29.32,23.39,39.89,4.81,4,7.75,9.73,6.6,16.65-.3,1.78.1,3.67-.08,5.49-.27,2.69.51,3.73,3.48,3.72q37-.18,73.92,0c3.41,0,3.66-1.33,3.66-4.08a25.92,25.92,0,0,1,4.45-15.17,41.55,41.55,0,0,0,7.69-26.21c-.73-18.28-.52-36.63-.06-54.93.2-7.75-3-11.49-11.26-10.77-2.85.25-4.21.54-4,3.81.31,4-.07,8,.12,12,.16,3.23-1,4.42-4.29,4.4s-4.95-.68-4.81-4.42c.23-6.65-.05-13.32.12-20,.06-2.39-.92-3.89-2.37-5.64-2.11-2.54-4.72-1.76-7.27-2.09-4.14-.53-5.94.54-5.53,5.23.5,5.79-.07,11.66.19,17.47.14,3.16-1.27,3.54-3.83,3.38-2.33-.14-4.52.46-4.34-3.39.34-7-.23-14,.2-21,.34-5.31-2.44-7.07-6.82-7.63-2-.25-4,.11-6-.09-2.65-.27-3.4.71-3.35,3.34.16,8.49,0,17,.09,25.47,0,2.17-.32,3.14-2.9,3.33-4,.3-5.29-.76-5.25-5.07.24-23.64.13-47.29.11-70.93,0-5.94-2.68-9.67-7.09-10.08-5.61-.51-8.86,2.94-8.88,9.68C312.94,246.18,313,260.66,313,275.15Zm34.73,137.79c-16,0-32,.1-48-.08-3.55,0-4.9.63-4.85,4.58q.35,27,0,54c-.05,4,1.31,4.59,4.85,4.58q47.73-.19,95.46,0c3.55,0,4.9-.62,4.85-4.58q-.35-27,0-54c0-3.95-1.3-4.62-4.85-4.58C379.37,413,363.54,412.94,347.71,412.94Z"/><path class="cls-3" d="M280,390.94c-.66,3.31-2.49,4.27-6,4.25-35.45-.17-70.91-.57-106.35.09-18.24.34-30.73-13.36-30.67-31,.21-66.41.08-132.82.08-199.24,0-2-.11-4-.17-6,.06-18.32.29-36.64.12-54.95-.15-15.77,14.19-28.25,27.89-28.17,66.46.39,132.92.29,199.37.09,14.93,0,26.77,13.56,26.74,26.78-.11,50.8,0,101.6-.08,152.4,0,1.57.93,4-.78,4.55a17.13,17.13,0,0,1-7.41.06c-1.27-.21-.75-2-.75-3.12,0-7.66,0-15.32,0-23V104.25a19,19,0,0,0-19.21-19.19c-65.79,0-131.58.12-197.37-.13-9.3,0-19.42,9.18-19.39,19.42.13,48.47.06,96.94.06,145.41,0,38.14.25,76.29-.14,114.42C145.76,376.85,154.59,387,169,387c35.48-.06,71,0,106.43-.07C278.5,386.89,280.82,387,280,390.94Z"/><path class="cls-3" d="M161,235.5c0-35.81.08-71.62-.1-107.42,0-4.19,1-5.14,5.17-5.13q97.92.21,195.85,0c4.23,0,5.12,1.11,5.1,5.2-.16,42.3-.09,84.6-.1,126.9a5.43,5.43,0,0,1-8.12,4.85c-1.49-.88-.83-2.39-.84-3.62-.06-10,0-20,0-30,0-29.82-.08-59.63.09-89.44,0-3.87-.91-4.92-4.87-4.91q-89.18.21-178.36,0c-3.94,0-4.89,1-4.88,4.9q.19,98.68,0,197.35c0,4,1.09,4.88,4.93,4.86,25.48-.18,51,0,76.44-.17,3.46,0,5,.43,4.86,4.47-.12,3.61-.8,4.73-4.65,4.7q-43-.27-85.93,0c-3.74,0-4.65-.91-4.64-4.65C161.1,307.44,161,271.47,161,235.5Z"/><path class="cls-3" d="M225.5,216c-12.14,0-24.29-.11-36.43.08-3.28,0-4.15-.87-4.12-4.12q.23-30.45,0-60.9c0-3.28.89-4.12,4.13-4.1q36.43.19,72.87,0c3.27,0,4.14.87,4.12,4.13q-.22,30.43,0,60.89c0,3.28-.88,4.16-4.13,4.11C249.79,215.9,237.65,216,225.5,216Zm0-60c-9.32,0-18.63.1-27.94-.07-2.84-.05-3.64.76-3.61,3.61q.21,21.94,0,43.9c0,2.85.78,3.62,3.61,3.6q27.94-.18,55.88,0c2.83,0,3.64-.76,3.61-3.6q-.21-22,0-43.91c0-2.85-.78-3.65-3.61-3.6C244.14,156.14,234.82,156,225.51,156Z"/><path class="cls-4" d="M65.42,49.13c7.66,0,15.33-.25,23,.09,4,.18,5.56-1.11,6.94-5,6.15-17.22,17.38-29.93,35.37-35s38.31,4.12,48.22,21c1.8,3.05,3.63,4.18,7.08,3.89,11.17-.94,20.07,3.43,26.82,12.23,1.72,2.24,3.78,2.83,6.48,2.81,14-.1,28,0,41.95-.11,3.27,0,4.85.61,4.74,4.35-.1,3.5-1.34,4.63-4.76,4.6q-23.72-.16-47.44,0c-2.69,0-4.13-1-5.5-3.26-6.49-10.87-16.12-14.57-27.9-10.56-3.27,1.11-4.28.17-5.39-2.69C169,26,157.17,17.89,141,16.32c-6.19-.6-12.27,1.55-17.41,5.12C111.79,29.61,103.17,40,102.1,55c-.15,2.12-.92,2.95-3,2.94q-30,0-59.93,0c-3.9,0-2.93-2.68-3.09-4.85-.19-2.46.2-4.12,3.38-4.07C48.1,49.23,56.76,49.13,65.42,49.13Z"/><path class="cls-3" d="M226.06,231c12.63,0,25.27.18,37.9-.11,4-.09,4.07,1.59,4.14,4.65.06,3.26-.5,4.57-4.23,4.55q-38.42-.27-76.82,0c-3.93,0-4.06-1.59-4.13-4.65-.07-3.26.49-4.62,4.23-4.55C200.12,231.16,213.09,231,226.06,231Z"/><path class="cls-3" d="M226.05,255c12.64,0,25.28.18,37.91-.11,3.94-.09,4.07,1.58,4.14,4.65.06,3.26-.49,4.57-4.23,4.55q-38.42-.27-76.82,0c-3.92,0-4.07-1.58-4.13-4.65-.06-3.25.48-4.62,4.23-4.55C200.11,255.15,213.09,255,226.05,255Z"/><path class="cls-3" d="M311.48,168c-9.64,0-19.29-.24-28.91.11-4.13.15-3.6-2.09-3.6-4.6s-.54-4.67,3.59-4.62q29.42.38,58.82,0c4.12,0,3.61,2.09,3.6,4.61s.56,4.76-3.59,4.61C331.43,167.8,321.45,168,311.48,168Z"/><path class="cls-5" d="M47.79,119c-7.64,0-15.29-.16-22.92.07-3.71.11-3.94-1.79-3.92-4.62,0-2.64.25-4.39,3.68-4.36q23.17.2,46.35,0c4,0,3.89,2.4,4,5.25.18,3.39-1.62,3.72-4.31,3.69C63.08,118.94,55.43,119,47.79,119Z"/><path class="cls-3" d="M267.51,109.05c-7.14,0-14.29-.19-21.42.08-4.05.15-3.07-2.46-3.05-4.56s-1-4.65,3-4.59q21.42.3,42.84,0c4-.06,3.06,2.46,3.05,4.56s1.05,4.74-3,4.59C281.79,108.86,274.65,109.05,267.51,109.05Z"/><path class="cls-3" d="M207,288c-7,0-14-.19-20.92.08-4.09.15-3-2.53-3-4.6s-1-4.61,3.06-4.55q21.42.3,42.84,0c4.09-.05,3,2.54,3,4.61s1,4.69-3.06,4.54C221.61,287.79,214.3,288,207,288Z"/><path class="cls-3" d="M303.45,183c6.81,0,13.62.2,20.42-.08,4-.17,3.1,2.42,3.07,4.54s1.08,4.66-3,4.61q-20.91-.3-41.84,0c-4,.06-3.1-2.43-3.07-4.55s-1.08-4.75,3-4.6C289.16,183.21,296.31,183,303.45,183Z"/><path class="cls-3" d="M450.42,473.92h9.95c5.37,0,7,2.28,5.57,7.49-.45,1.68-1.48,1.49-2.58,1.49-8.63,0-17.25-.07-25.87,0-3.92.05-2.47-2.78-2.47-4.53s-1.45-4.63,2.47-4.52C441.8,474,446.11,473.92,450.42,473.92Z"/><path class="cls-3" d="M28.56,473.92h1.49c6.64,0,6.54,0,6.07,6.47-.33,4.56-3.93,2.68-5.49,2.32-3.5-.81-8.9,3.45-10.34-2.35-1.54-6.2-.79-6.44,5.8-6.44Z"/><path class="cls-3" d="M484.23,473.92h2.48c4.77,0,7.76,3.94,4.9,7.61s-7.93.78-12,1.3c-1.18.15-2.94,1-3.68-1.26C474.07,476,476.23,473.92,484.23,473.92Z"/><path class="cls-5" d="M287.91,49.11a30.71,30.71,0,0,0,3.46,0c3.19-.33,4.76.48,4.76,4.24S295,58.47,291.3,58a32.7,32.7,0,0,0-4.95,0c-3.47.13-6.48.41-6.41-4.87.08-5.58,3.76-3.63,6.48-4A12.33,12.33,0,0,1,287.91,49.11Z"/><path class="cls-5" d="M318.7,58a26.59,26.59,0,0,0-3.46,0c-3.66.49-4.38-1.34-4.38-4.6s.77-4.67,4.16-4.32c2,.2,4,0,5.94.05,2.7.14,6-1.26,6.06,3.9s-2.77,5.17-6.34,4.95C320,57.94,319.36,58,318.7,58Z"/><path class="cls-5" d="M96.73,119c-1.15,0-2.32-.09-3.46,0-2.82.27-4.33-.53-4.17-3.77.13-2.9.15-5.38,4.1-5.13a48.36,48.36,0,0,0,7.42,0c3.45-.33,4.58,1,4.56,4.45s-1,4.93-4.49,4.48A30.76,30.76,0,0,0,96.73,119Z"/><path class="cls-1" d="M313,275.15c0-14.49,0-29,0-43.46,0-6.74,3.27-10.19,8.88-9.68,4.41.41,7.08,4.14,7.09,10.08,0,23.64.13,47.29-.11,70.93,0,4.31,1.21,5.37,5.25,5.07,2.58-.19,2.92-1.16,2.9-3.33-.09-8.49.07-17-.09-25.47-.05-2.63.7-3.61,3.35-3.34,2,.2,4-.16,6,.09,4.38.56,7.16,2.32,6.82,7.63-.43,7,.14,14-.2,21-.18,3.85,2,3.25,4.34,3.39,2.56.16,4-.22,3.83-3.38-.26-5.81.31-11.68-.19-17.47-.41-4.69,1.39-5.76,5.53-5.23,2.55.33,5.16-.45,7.27,2.09,1.45,1.75,2.43,3.25,2.37,5.64-.17,6.65.11,13.32-.12,20-.14,3.74,1.56,4.4,4.81,4.42s4.45-1.17,4.29-4.4c-.19-4,.19-8-.12-12-.25-3.27,1.11-3.56,4-3.81,8.23-.72,11.46,3,11.26,10.77-.46,18.3-.67,36.65.06,54.93a41.55,41.55,0,0,1-7.69,26.21A25.92,25.92,0,0,0,388,401c0,2.75-.25,4.1-3.66,4.08q-37-.24-73.92,0c-3,0-3.75-1-3.48-3.72.18-1.82-.22-3.71.08-5.49,1.15-6.92-1.79-12.66-6.6-16.65-12.73-10.57-18.84-24.67-23.39-39.89-3.29-11-6.86-21.95-10.3-32.92-1.38-4.41-.16-6.15,4.36-6.36s8.16,1.19,10.73,5.28c5.45,8.65,11.23,17.1,16.6,25.81,1.29,2.1,1.92,2.22,3.47.57a45.44,45.44,0,0,1,6.66-5.86c3.19-2.3,4.7-5.27,4.56-9.68C312.72,302.46,313,288.8,313,275.15Z"/><path class="cls-6" d="M347.71,412.94c15.83,0,31.66.1,47.48-.08,3.55,0,4.9.63,4.85,4.58q-.35,27,0,54c0,4-1.3,4.59-4.85,4.58q-47.73-.19-95.46,0c-3.54,0-4.9-.62-4.85-4.58q.35-27,0-54c-.05-3.95,1.3-4.62,4.85-4.58C315.72,413,331.72,412.94,347.71,412.94Z"/><path class="cls-1" d="M225.51,156c9.31,0,18.63.1,27.94-.07,2.83-.05,3.64.75,3.61,3.6q-.21,22,0,43.91c0,2.84-.78,3.62-3.61,3.6q-27.94-.18-55.88,0c-2.83,0-3.64-.75-3.61-3.6q.21-21.94,0-43.9c0-2.85.77-3.66,3.61-3.61C206.88,156.14,216.19,156,225.51,156Z"/></svg>