<svg id="Capa_1" data-name="Capa 1" xmlns="http://www.w3.org/2000/svg" viewBox="0 0 500 500"><defs><style>.cls-1{fill:#c0c4c7;}.cls-2{fill:#afca1e;}.cls-3{fill:#fff;}.cls-4{fill:#059698;}.cls-5{fill:#e8e9ea;}</style></defs><path class="cls-1" d="M500.4,114.48c-5.32,0-10.64-.22-15.95,0-2.78.09-4.32-.86-5.2-3.46-4.59-13.5-13.46-16.51-25.58-15.15-3,.33-3.75-1.23-4.91-2.91-7.26-10.54-19.46-15.59-31.68-13.08-14.94,3.07-23.4,13-23.37,28.38,0,5.11-1.4,6.53-6.43,6.28-8.79-.43-17.62-.29-26.43,0-3.78.11-4.27-1.57-4.33-4.75,0-3.33,1.11-4.31,4.34-4.22,6.81.2,13.63,0,20.45.1,2.7,0,4-.44,4.43-3.67,2.23-16.94,15-28.69,31.75-30.55,14.72-1.64,26.75,2.53,36.23,13.9a5.82,5.82,0,0,0,5.23,2.2c11.91-.63,20.4,4.76,25.9,15.09,1.18,2.21,2.59,3.16,5.08,3,3.48-.17,7-.07,10.47-.08Z"/><path class="cls-2" d="M1.2,469H11.63c5.36,0,6.95,2.28,5.56,7.49-.53,2-1.91,1.45-3.08,1.47-4.3.07-8.61,0-12.91,0Z"/><path class="cls-2" d="M500.4,478c-1.65,0-3.31-.12-4.95,0-3.37.3-5.39-.07-5.21-4.52.15-3.71,1-5.07,4.71-4.53a38.13,38.13,0,0,0,5.45,0Z"/><path class="cls-2" d="M230.25,478H37.61c-5.18,0-7-2.67-5.46-7.62.62-2,2.05-1.31,3.2-1.33,4.66-.09,9.32-.14,14,0,2.19.07,3-.67,2.82-2.84a29,29,0,0,1,0-3.49q0-93.1-.12-186.2c0-4.5,1.16-5.71,5.46-5.33,4.46.4,9-.18,13.46.17,4,.32,5.43-.66,5.28-5-.37-10.3,0-20.63-.2-30.94-.06-3.24.81-4.18,4.1-4.14,15.47.17,31-.07,46.42.18,3.87.06,4.59-1.11,4.56-4.72-.18-20.63,0-41.26-.17-61.89,0-3.35.6-4.72,4.28-4.48,5.3.33,10.65-.11,16,.15,3.08.15,3.94-.75,3.88-3.86-.2-10.31.09-20.63-.17-30.94-.09-3.64,1.1-4.3,4.47-4.29q78.86.17,157.7,0c4.19,0,4.81,1.4,4.73,5-.21,10.14,0,20.3-.13,30.44-.05,2.79.72,3.75,3.58,3.63,5.48-.21,11,.16,16.46-.14,3.41-.18,4.08,1,4.05,4.2-.15,16-.05,31.94-.1,47.92,0,2.32-.13,3.86,3.22,4,16.29.64,31.14,6.11,44.44,15.28a90.86,90.86,0,0,1,38.46,85.73c-1.42,10.56-3.6,20.63-8,30.42-4.24,9.45-10,17.74-16.28,25.8-12.33,15.9-27.39,29.51-38.54,46.43-8.83,13.42-13.6,28.19-16.27,43.8-.55,3.27-.1,5.28,4.44,5.22,22.29-.29,44.58,0,66.87-.22,3.73,0,4.65.91,4.7,4.63.06,3.92-1.24,4.53-4.79,4.53Q327.06,477.91,230.25,478ZM140,319c0,48.26.07,96.52-.13,144.79,0,4.59,1.32,5.34,5.51,5.3q33.93-.32,67.88,0c3.61,0,4.77-.69,4.72-4.56-.24-18.14,0-36.29-.19-54.42,0-3.32.94-4.13,4.15-4.1,16.14.16,32.28.23,48.42,0,4-.07,4.53,1.26,4.5,4.77-.17,18.14,0,36.28-.15,54.42,0,3,.69,3.94,3.83,3.91,16.14-.17,32.28-.21,48.42,0,3.76.05,4.19-1.5,3.6-4.4-.32-.92-.6-1.85-.83-2.79-1.4-14.35-6.84-27.27-14.17-39.46-9.87-16.4-23.82-29.49-36-44-6.63-7.87-12.86-16-17.64-25.11a94.68,94.68,0,0,1-10.3-33.71c-1.17-10.13-1.39-20.17.65-30,4.51-21.64,14.8-40,32.52-54,14.34-11.28,30.34-18,48.48-19.27,2.9-.22,3.52-1,3.5-3.74-.12-12.81-.2-25.63,0-38.44.07-3.77-.76-5-4.81-5q-93.6.21-187.19,0c-3.94,0-4.88,1-4.86,4.9Q140.09,246.61,140,319Zm116.93-11.37c-1.57,20.3,5.31,38.31,16.75,54.8,9.69,14,21.94,25.84,32.84,38.82,15.89,18.91,27.2,39.69,29.29,64.8.2,2.42.1,5.87,4.37,6,3.86.11,6.46-.72,6.71-5.25.07-1.2.67-2.47.81-3.8a99.33,99.33,0,0,1,11.24-36.41c9.42-17.77,23.35-32.14,36.66-46.93,8.39-9.32,16.14-19.15,21.81-30.32,9.08-17.89,11.07-37,8.14-56.72-4.23-28.5-20.08-49-45-62.16-17.69-9.34-36.76-11-56.54-7.26-20.67,3.88-37,14.7-49.78,30.65-12.41,15.43-18.78,33.4-17.32,53.78Zm-195.81,67c0,29.93.08,59.87-.09,89.8,0,3.78,1,4.65,4.65,4.61q30.43-.29,60.86,0c3.22,0,4.57-.42,4.56-4.18q-.19-90.3,0-180.61c0-3.3-.91-4.12-4.13-4.09-20.45.14-40.91.19-61.36,0-3.9-.06-4.61,1.09-4.61,4.74.17,29.89.1,59.83.1,89.77ZM238,160.43c23.43,0,46.86-.08,70.29.07,3.41,0,4.6-.72,4.46-4.32-.29-7.64-.19-15.3,0-22.94.06-2.78-.72-3.7-3.61-3.69q-70.8.12-141.59,0c-2.8,0-3.75.75-3.69,3.62.18,7.65.25,15.3,0,22.94-.13,3.51.88,4.42,4.39,4.4C191.5,160.35,214.77,160.43,238,160.43Zm27.74,281.34c0-8-.1-15.94.06-23.9.05-2.76-.68-3.76-3.6-3.72q-15.93.24-31.86,0c-2.91,0-3.62,1-3.6,3.71q.16,23.91,0,47.82c0,2.58.69,3.42,3.34,3.38q16.18-.21,32.37,0c2.64,0,3.39-.78,3.34-3.38-.11-8,0-15.94,0-23.91ZM107.51,271.27c6.8,0,13.61-.08,20.41,0,2.35,0,3.16-.68,3.12-3.08q-.18-12.45,0-24.89c0-2.41-.77-3.1-3.13-3.08q-20.14.14-40.31,0c-2.52,0-3.5.65-3.45,3.34q.22,12.19,0,24.39c-.05,2.69.93,3.38,3.45,3.33C94.24,271.18,100.87,271.27,107.51,271.27Z"/><path class="cls-1" d="M78.65,65.66c8.15,0,16.31-.23,24.45.1,4,.16,5.58-1.05,6.88-4.92,5.57-16.62,16.35-28.93,32.84-35.19,17.66-6.74,39.89,1,51.18,17.12a64.37,64.37,0,0,1,3.82,5.84A3.55,3.55,0,0,0,202,50.49c12.08-2.07,21.4,2.93,28.82,11.82,2.24,2.7,4.38,3.42,7.56,3.4,14.31-.11,28.61,0,42.91-.12,3.41,0,4.65.89,4.63,4.46s-1.07,4.55-4.56,4.51c-16.46-.16-32.93-.11-49.39,0a5,5,0,0,1-5.08-3c-6.4-11.34-16.73-15.31-29.06-11.06-3.19,1.1-4.12.27-5.32-2.66-6.78-16.47-21-26.56-37-26.18-12.24.29-21.32,7-28.66,16C121.22,54.49,116.51,62,117,71.52c.11,2.54-1.28,3-3.44,3-20.62,0-41.24-.09-61.86,0-3.65,0-3.43-2.07-3.47-4.52s0-4.5,3.57-4.43C60.69,65.79,69.67,65.66,78.65,65.66Z"/><path class="cls-1" d="M60.11,137.52c-8,0-16-.11-23.94.06-3.12.07-4-1.11-4-4.07s.75-4.14,3.93-4.12q24.18.21,48.38,0c2.86,0,3.77,1,3.7,3.79-.07,2.6-.17,4.46-3.65,4.38C76.4,137.39,68.25,137.52,60.11,137.52Z"/><path class="cls-2" d="M459,478H449c-5.35,0-7-2.3-5.56-7.5.45-1.68,1.49-1.47,2.59-1.47,8.94,0,17.89.06,26.83,0,3.92,0,2.46,2.79,2.46,4.53s1.44,4.62-2.47,4.52C468.24,477.91,463.6,478,459,478Z"/><path class="cls-1" d="M309.59,74.49a28.53,28.53,0,0,0-3.46,0c-3.37.42-4.62-.83-4.59-4.37,0-3.38.95-4.92,4.48-4.51a49.18,49.18,0,0,0,5.43,0c3.21,0,6.48-.94,6.37,4.61-.1,5.36-3.35,4.09-6.26,4.22A16.15,16.15,0,0,1,309.59,74.49Z"/><path class="cls-1" d="M340.45,74.49a24.83,24.83,0,0,0-3.45,0c-3.65.5-4.39-1.3-4.38-4.57,0-3.11.77-4.66,4.15-4.31a58.64,58.64,0,0,0,5.93,0c3,0,6.16-1,6.19,4.3,0,5.09-2.78,4.63-6,4.52C342.1,74.47,341.27,74.49,340.45,74.49Z"/><path class="cls-1" d="M112.26,129.45a32.54,32.54,0,0,0,3.95,0c3.22-.37,3.8,1.29,3.82,4.1s-.81,4.3-3.93,4a61.26,61.26,0,0,0-6.91,0c-2.92.08-5.37.32-5.37-4.12s2.7-4,5.47-4Z"/><path class="cls-3" d="M140,319q0-72.4-.09-144.79c0-3.88.92-4.91,4.86-4.9q93.6.19,187.19,0c4.05,0,4.88,1.19,4.81,5-.23,12.81-.15,25.63,0,38.44,0,2.69-.6,3.52-3.5,3.74-18.14,1.32-34.14,8-48.48,19.27-17.72,13.94-28,32.32-32.52,54-2,9.79-1.82,19.83-.65,30a94.68,94.68,0,0,0,10.3,33.71c4.78,9.1,11,17.24,17.64,25.11,12.21,14.5,26.16,27.59,36,44,7.33,12.19,12.77,25.11,14.17,39.46.23.94.51,1.87.83,2.79.59,2.9.16,4.45-3.6,4.4-16.14-.23-32.28-.19-48.42,0-3.14,0-3.85-.88-3.83-3.91.14-18.14,0-36.28.15-54.42,0-3.51-.53-4.84-4.5-4.77-16.14.26-32.28.19-48.42,0-3.21,0-4.18.78-4.15,4.1.17,18.13,0,36.28.19,54.42,0,3.87-1.11,4.58-4.72,4.56q-33.94-.25-67.88,0c-4.19,0-5.53-.71-5.51-5.3C140.05,415.53,140,367.27,140,319Zm55.15-87.68c-7,0-14,.12-20.94-.07-2.69-.07-3.34.82-3.32,3.39.12,12.64.24,25.28,0,37.91-.09,3.89,1.78,3.7,4.47,3.77,3,.07,4.88,0,4.73-4-.34-9.47,0-19-.17-28.43,0-2.79.72-3.7,3.58-3.63,7.64.19,15.3.19,22.94,0,2.89-.07,3.6.89,3.55,3.65-.15,9.64.13,19.29-.15,28.93-.11,3.66,1.74,3.66,4.23,3.43,2.18-.21,5,1.23,4.94-3.22-.25-12.8-.16-25.61,0-38.41,0-2.6-.68-3.43-3.34-3.36-6.86.16-13.68,0-20.49,0Zm.07,63.91c-7,0-14,.1-20.94-.06-2.57,0-3.42.62-3.39,3.31.13,12.47.23,24.94,0,37.41-.1,4.4,2.66,3.12,4.88,3.27,2.41.16,4.41.38,4.29-3.38-.3-9.3,0-18.62-.15-27.92,0-2.69.53-3.79,3.5-3.71,7.64.2,15.29.18,22.93,0,2.78-.07,3.69.7,3.64,3.57-.17,9.31.19,18.63-.18,27.93-.16,4.24,2.25,3.45,4.68,3.53,2.62.08,4.63.32,4.53-3.68-.3-12.12-.26-24.27,0-36.4.08-3.56-1.3-4-4.29-3.94-6.55.2-13,.07-19.52.07Z"/><path class="cls-4" d="M256.91,307.64c-1.46-20.38,4.91-38.35,17.25-53.79,12.76-15.95,29.11-26.77,49.78-30.65,19.78-3.71,38.85-2.08,56.54,7.26,25,13.2,40.82,33.66,45,62.16,2.93,19.7.94,38.83-8.14,56.72-5.67,11.17-13.42,21-21.81,30.32-13.31,14.79-27.24,29.16-36.66,46.93A99.33,99.33,0,0,0,347.63,463c-.14,1.33-.74,2.6-.81,3.8-.25,4.53-2.85,5.36-6.71,5.25-4.27-.12-4.17-3.57-4.37-6-2.09-25.11-13.4-45.89-29.29-64.8-10.9-13-23.15-24.85-32.84-38.82C262.22,345.91,255.34,327.91,256.91,307.64Zm51.8.14c-.27,17.2,14.9,32.47,32,32.12,18.2-.37,32.53-13.45,32.7-32.48a32.37,32.37,0,0,0-32-32.75h-.16c-17.26-.16-32.34,13.24-32.55,33.11Z"/><path class="cls-3" d="M61.1,374.68c0-29.94.07-59.88-.08-89.81,0-3.61.69-4.76,4.55-4.71,20.45.22,40.91.17,61.36,0,3.22,0,4.14.79,4.13,4.09q-.15,90.3,0,180.61c0,3.76-1.34,4.2-4.56,4.18q-30.43-.21-60.86,0C62,469,61,468.21,61,464.43,61.18,434.55,61.1,404.61,61.1,374.68Z"/><path class="cls-5" d="M238,160.43c-23.27,0-46.54-.08-69.8.08-3.51,0-4.52-.89-4.39-4.4.27-7.64.2-15.29,0-22.94-.06-2.87.89-3.62,3.69-3.62q70.79.12,141.59,0c2.89,0,3.67.91,3.61,3.69-.16,7.64-.26,15.3,0,22.94.14,3.6-1.05,4.34-4.46,4.32C284.9,160.35,261.47,160.43,238,160.43Z"/><path class="cls-5" d="M265.78,441.77c0,8-.1,15.94.05,23.91.05,2.6-.7,3.42-3.34,3.38q-16.19-.21-32.37,0c-2.65,0-3.35-.8-3.34-3.38q.16-23.91,0-47.82c0-2.76.69-3.75,3.6-3.71q15.93.24,31.86,0c2.92,0,3.65,1,3.6,3.72C265.68,425.83,265.78,433.8,265.78,441.77Z"/><path class="cls-5" d="M107.51,271.27c-6.64,0-13.27-.09-19.91,0-2.52.05-3.5-.64-3.45-3.33q.22-12.19,0-24.39c-.05-2.69.93-3.35,3.45-3.34q20.16.15,40.31,0c2.36,0,3.17.67,3.13,3.08q-.18,12.44,0,24.89c0,2.4-.77,3.12-3.12,3.08C121.12,271.19,114.31,271.27,107.51,271.27Z"/><path class="cls-2" d="M195.13,231.33c6.81,0,13.63.12,20.44-.06,2.66-.07,3.36.76,3.34,3.36-.13,12.8-.22,25.61,0,38.41.08,4.45-2.76,3-4.94,3.22-2.49.23-4.34.23-4.23-3.43.28-9.64,0-19.29.15-28.93.05-2.76-.66-3.72-3.55-3.65-7.64.19-15.3.19-22.94,0-2.86-.07-3.62.84-3.58,3.63.16,9.47-.17,19,.17,28.43.15,4.06-1.75,4.09-4.73,4-2.69-.07-4.56.12-4.47-3.77.29-12.63.17-25.27.05-37.91,0-2.57.63-3.46,3.32-3.39C181.16,231.45,188.15,231.33,195.13,231.33Z"/><path class="cls-2" d="M195.2,295.24c6.48,0,13,.13,19.45-.06,3-.08,4.37.38,4.29,3.94-.24,12.13-.28,24.28,0,36.4.1,4-1.91,3.76-4.53,3.68-2.43-.08-4.84.71-4.68-3.53.37-9.3,0-18.62.18-27.93,0-2.87-.86-3.64-3.64-3.57-7.64.17-15.29.19-22.93,0-3-.08-3.54,1-3.5,3.71.14,9.3-.15,18.62.15,27.92.12,3.76-1.88,3.54-4.29,3.38-2.22-.15-5,1.13-4.88-3.27.26-12.47.16-24.94,0-37.41,0-2.69.82-3.36,3.39-3.31C181.24,295.34,188.22,295.24,195.2,295.24Z"/><path class="cls-2" d="M308.71,307.78c.21-19.85,15.24-33.27,32.56-33.11a32.37,32.37,0,0,1,32.15,32.59v.16c-.17,19-14.5,32.11-32.7,32.48C323.61,340.25,308.44,325,308.71,307.78Zm32.37-27.52c-15.39-.76-27.69,13.31-27.41,26.93.32,15.94,11.76,27.6,27.47,27.5,15.51-.1,26.56-10.57,27.14-26.84C368.87,290.91,353.91,279.36,341.08,280.26Z"/><path class="cls-3" d="M341.08,280.26c12.83-.9,27.79,10.63,27.2,27.59-.58,16.27-11.63,26.74-27.14,26.84-15.71.1-27.15-11.56-27.47-27.5C313.39,293.57,325.69,279.5,341.08,280.26Z"/></svg>