<svg id="Capa_1" data-name="Capa 1" xmlns="http://www.w3.org/2000/svg" viewBox="0 0 500 500"><defs><style>.cls-1{fill:#fefefe;}.cls-2{fill:#e8e9ea;}.cls-3{fill:#aeca18;}.cls-4{fill:#bbbfc3;}.cls-5{fill:#009597;}</style></defs><path class="cls-1" d="M.09,499.91Q.09,252.25,0,4.59C0,.84.84,0,4.59,0Q250,.17,495.41,0c3.75,0,4.59.84,4.59,4.59q-.17,245.41,0,490.82c0,3.75-.84,4.59-4.59,4.59Q247.75,499.84.09,499.91ZM385.16,213c-.07-10.13-.24-20.26-.14-30.4,0-2.81-.73-3.71-3.6-3.62-5.47.17-11-.06-16.43-.13-2.25-3.9-4.28-8-8.82-9.83-.07-1-.2-2-.2-3q0-30.47,0-60.91C356,94.25,347.1,84,336,85A191.33,191.33,0,0,1,314,85c-3.26-.11-4.17.82-4.14,4.11.13,14,0,28-.08,41.92l-14.57-6.34A171.38,171.38,0,0,0,209.77,112c-11.53,1.36-22.89,3.25-33.86,7.14-10.21-14.34-23.34-21.39-41.63-19.25-18.83,2.2-35.19,21.69-34.26,39.46.47,8.89-.74,17.86,1.14,26.7A39.89,39.89,0,0,0,96.71,170c-9.91,11.68-18.72,24.17-25.4,38-2.92,6-6.72,11.9-7.26,18.92-8,.48-8,.48-8,8.76,0,24-.33,47.95,0,71.92.34,22.56-1.9,45.24,1.15,67.66,3.23,23.79,17.2,39.78,39.32,48.77C107,428.18,118,428,129,428.14c.39,2.12,2.35,2.7,3.8,3.63,28.3,18.3,59.38,27.51,93,28.17l7.12,14c-33.56,0-66.37-.05-99.19.07-3.19,0-3.86-1-3.8-3.94.18-9.82-.17-19.66.18-29.48.14-4-2-3.72-4.56-3.66s-4.82-.65-4.66,3.57c.36,9.48-.15,19,.22,28.47.18,4.34-1.24,5.1-5.25,5.06-21.49-.2-43-.12-64.47,0-1.43,0-3.4-1.1-4.3,1.17-1.81,4.56.35,7.77,5.25,7.77H427.71c.82,0,1.63,0,2.13-.87a5.44,5.44,0,0,0-4.87-8.12H288.54c-1.77,0-3.83.45-4.49-2-1.72-6.4-5.13-12.25-6.13-18.88,1.29-1.51,3.21-1.63,4.91-2.18a164.75,164.75,0,0,0,60-34.45c20-17.8,35.56-38.91,45.83-63.81A173.34,173.34,0,0,0,401,304.14c2.14-.05,4.29-.09,6.43-.17,1.11,0,2.13.19,2.57-1.5,1.35-5.19-.21-7.42-5.53-7.49-.83,0-1.65-.11-2.47-.16.88-23.27-1.85-46-10-67.93C390.14,222.11,389.64,216.52,385.16,213ZM45.37,44.08c-8.33,0-16.66.17-25-.08-3.69-.11-4.35,1.37-4.4,4.65-.06,3.53,1.09,4.52,4.56,4.5,19.16-.15,38.32-.21,57.47,0,4.38,0,5.66-1.47,5.06-5.43a13.63,13.63,0,0,1,1.35-7.26,53.05,53.05,0,0,1,19.73-23.78,28.81,28.81,0,0,1,14-4.66c15.38-1.26,31.63,9.06,37,25.25.87,2.6,2.12,3.59,5.1,2.69,13.11-4,20.29-1.43,28,10,1.66,2.46,3.39,3.13,6.11,3.12,15.65-.09,31.31-.16,47,0,3.74,0,4.85-1,4.82-4.77S244.77,44,241.44,44c-13.82.16-27.65,0-41.48.11-2.63,0-4.48-.51-6.32-2.76-7-8.54-15.64-13.86-27.26-12.27-3,.42-4.91-.81-6.4-3.48A41.64,41.64,0,0,0,143.29,9c-14.15-7.63-28.6-8.86-43-.61-12.8,7.33-21.06,18.34-25.46,32.3-.82,2.6-2.11,3.57-5,3.5C61.7,43.93,53.53,44.08,45.37,44.08Zm435.54,6c1.32-12.41-9.89-22-21.15-21.87-12.3.17-20.72,10.66-21.09,20.69-.5,13.12,10.65,22.81,21.22,22.3C472.75,70.59,480.91,63,480.91,50.1Zm-37.07,78.59c.86-3.84-.94-5.17-4.6-4.65a2.68,2.68,0,0,1-.49,0c-7.75,0-7.88,0-7.75-8.06.05-3.38-.39-5.13-4.5-5.09-3.91,0-4.72,1.39-4.64,5,.16,8.1,0,8.1-8.11,8.19a2.8,2.8,0,0,1-.5,0c-3.65-.57-4.38,1.25-4.42,4.56,0,3.5,1,4.57,4.54,4.53,8.45-.1,8.46.07,8.57,8.22a2.77,2.77,0,0,1,0,.5c-.47,3.27,1,4.06,4.18,4.33,5.39.45,4.85-2.76,4.85-6.2,0-7.81-.91-6.85,6.91-6.94a14.67,14.67,0,0,1,2,0C443.24,133.5,444.48,132,443.84,128.69ZM27.71,114.05c8,0,16-.14,24,.06,3.72.09,3.39-2.17,3.39-4.56S55.42,105,51.7,105q-23.49.21-47,0c-3.44,0-3.75,1.64-3.67,4.31s-.32,5,3.67,4.82C12.38,113.88,20.05,114.05,27.71,114.05ZM450,482.91c4.31,0,8.63-.2,12.93.06,4.13.25,2.88-2.6,2.95-4.63s.9-4.64-3.09-4.5c-7.78.27-15.59.31-23.37,0-3.82-.17-4.57,1-4.65,4.66-.08,3.91,1.22,4.81,4.79,4.5S446.51,482.91,450,482.91ZM268.8,44.08c-1.67,0-3.34.11-5,0-2.7-.22-3.7.68-3.93,3.59-.35,4.45,1.13,6.09,5.56,5.49a31.41,31.41,0,0,1,7,0c3.34.32,4.67-.69,4.69-4.35s-1.08-5.25-4.82-4.71A24,24,0,0,1,268.8,44.08Zm-191,61a33.6,33.6,0,0,1-4.49,0c-3.73-.49-4.23,1.39-4.4,4.63-.23,4.19,1.77,4.69,5.1,4.44a44.6,44.6,0,0,1,7.49,0c3.39.31,4.61-.78,4.65-4.39,0-3.8-1.16-5.21-4.85-4.68A27.22,27.22,0,0,1,77.84,105.06Zm221-52a33.17,33.17,0,0,1,4,0c3.37.42,4.15-1.1,4.23-4.28.1-3.69-.92-5.25-4.75-4.79a31.42,31.42,0,0,1-7,0c-3.61-.39-4.47,1.17-4.47,4.56s.92,5,4.49,4.51A25.53,25.53,0,0,1,298.87,53.07Zm132,250.9h5.95c1,0,1.74-.15,2.11-1.45,1.47-5.1-.23-7.53-5.48-7.54-2.64,0-5.29,0-7.93,0-1.08,0-2.14-.24-2.61,1.44-1.44,5.11.23,7.54,5.48,7.54ZM27.69,482.91c9.13,0,10-.27,8.12-6.5-1.69-5.54-7.49-1.42-11.33-2.37-1.58-.39-4.33-1.39-4.48,2.49-.25,6.39-.48,6.38,5.7,6.38Zm456.05,0c8.84,0,10-.51,7.89-6.71-1.84-5.47-7.65-1.11-11.54-2.16-1.41-.38-4-1.34-4.25,2.21-.49,6.35-.41,6.66,5.91,6.66Z"/><path class="cls-2" d="M64.05,226.82c.54-7,4.34-12.89,7.26-18.92,6.68-13.78,15.49-26.27,25.4-38a39.89,39.89,0,0,1,4.45-3.94c3.46,7.11,7.1,13.85,13.39,19.26,22,18.91,56.9,9.18,64.74-19.55,4.15-15.23,4.13-31.55-3.38-46.62,11-3.89,22.33-5.78,33.86-7.14a171.38,171.38,0,0,1,85.48,12.72L309.82,131c.05,1.17.15,2.33.15,3.49,0,35.64.07,71.29-.08,106.93,0,3.76.92,4.82,4.67,4.65a152.86,152.86,0,0,1,21,0C347.2,247.2,356,236.76,356,225.81c0-8.33-.1-16.66,0-25,.06-4.12-1.85-9.58.76-12,2.79-2.59,8.24-.62,12.52-.8,4.48-.19,6.69,2,6.68,6.53,0,22.49-.09,45,.08,67.46,0,3.44-1.15,4.07-4.25,4-12-.16-24,0-36-.14-3.05,0-4,.74-3.92,3.87.24,7.16,0,14.33.13,21.48.06,2.65-.44,4-3.48,3.78a119.76,119.76,0,0,0-13,0c-2.84.15-3.71-.76-3.64-3.62.19-7.32,0-14.65.08-22,0-1.93.16-3.52-2.71-3.5-14.32.12-28.64.06-43,.06-4.48,0-3,3.38-3.33,5.77-.4,2.76.91,3.32,3.41,3.27,7-.14,14-.18,21,0,5.09.13,12.07-2.26,14.76,1,2.56,3.12.54,9.85.91,15,.25,3.45-1.11,4.13-4.23,4.05-7.66-.2-15.32-.07-23-.07H245c8.06-9.82,9.52-20.61,9.16-32-.11-3.43-1.2-4.05-4.29-4-15,.14-30,0-45,.13a9.22,9.22,0,0,1-7.37-3c-14.74-14.94-29.67-29.69-44.42-44.62-2.38-2.41-4.68-3.63-8.19-3.5-7.81.28-15.65.2-23.48.06-21.08-.37-36.89,15.7-36.45,36.41.51,24.14.18,48.3.08,72.45,0,4.93,2.18,11.68-1,14.28s-9.54.48-14.47.92c-3.91.35-4.6-1.12-4.58-4.72q.21-47.47,0-94.94C65,230.54,66,228.38,64.05,226.82Z"/><path class="cls-3" d="M64.05,226.82c1.91,1.56,1,3.72,1,5.57q.11,47.46,0,94.94c0,3.6.67,5.07,4.58,4.72,4.93-.44,11.45,1.56,14.47-.92s1-9.35,1-14.28c.1-24.15.43-48.31-.08-72.45-.44-20.71,15.37-36.78,36.45-36.41,7.83.14,15.67.22,23.48-.06,3.51-.13,5.81,1.09,8.19,3.5,14.75,14.93,29.68,29.68,44.42,44.62a9.22,9.22,0,0,0,7.37,3c15-.15,30,0,45-.13,3.09,0,4.18.59,4.29,4,.36,11.42-1.1,22.21-9.16,32h30.88c7.67,0,15.33-.13,23,.07,3.12.08,4.48-.6,4.23-4.05-.37-5.11,1.65-11.84-.91-15-2.69-3.27-9.67-.88-14.76-1-7-.17-14-.13-21,0-2.5,0-3.81-.51-3.41-3.27.35-2.39-1.15-5.78,3.33-5.77,14.33,0,28.65.06,43-.06,2.87,0,2.72,1.57,2.71,3.5,0,7.33.11,14.66-.08,22-.07,2.86.8,3.77,3.64,3.62a119.76,119.76,0,0,1,13,0c3,.17,3.54-1.13,3.48-3.78-.15-7.15.11-14.32-.13-21.48-.1-3.13.87-3.91,3.92-3.87,12,.18,24,0,36,.14,3.1,0,4.27-.59,4.25-4-.17-22.49-.1-45-.08-67.46,0-4.54-2.2-6.72-6.68-6.53-4.28.18-9.73-1.79-12.52.8-2.61,2.41-.7,7.87-.76,12-.13,8.32-.07,16.65,0,25,0,10.95-8.77,21.39-20.44,20.31a152.86,152.86,0,0,0-21,0c-3.75.17-4.69-.89-4.67-4.65.15-35.64.09-71.29.08-106.93,0-1.16-.1-2.32-.15-3.49.05-14,.21-28,.08-41.92,0-3.29.88-4.22,4.14-4.11A191.33,191.33,0,0,0,336,85c11.11-.92,20,9.3,20,20.16q0,30.45,0,60.91c0,1,.13,2,.2,3-.31,12.33-1.76,9.93,8.82,9.83,5.47.07,11,.3,16.43.13,2.87-.09,3.62.81,3.6,3.62-.1,10.14.07,20.27.14,30.4-.07,19.12-.24,38.24-.13,57.36,0,3.58-.64,4.93-4.56,4.75-7.8-.34-15.63-.23-23.44,0-5.25.11-12.45-2.35-15.21,1-2.64,3.22-.75,10.14-.85,15.44a4,4,0,0,1,0,.49c-.36,2.49.85,3.05,3.14,3,19.29-.12,38.58-.15,57.87-.2.82.05,1.64.15,2.47.16,5.32.07,6.88,2.3,5.53,7.49-.44,1.69-1.46,1.47-2.57,1.5-2.14.08-4.29.12-6.43.17-8.66-.05-17.31-.15-26-.15q-105.15,0-210.29-.08c-3.51,0-5,.52-4.79,4.52.38,6.47.28,13,0,19.47-.13,3.27.86,4.18,4.14,4.14,14.65-.17,29.3.07,44-.11,13.79-.18,30,10.34,35,24.11,8.14,22.43,15.86,45,24,67.43,3.59,9.86,6.15,20.12,10.86,29.57,1,6.63,4.41,12.48,6.13,18.88.66,2.44,2.72,2,4.49,2H425a5.44,5.44,0,0,1,4.87,8.12c-.5.89-1.31.86-2.13.87H52.39c-4.9,0-7.06-3.21-5.25-7.77C48,472.87,50,474,51.44,474c21.49-.08,43-.16,64.47,0,4,0,5.43-.72,5.25-5.06-.37-9.48.14-19-.22-28.47-.16-4.22,2.2-3.51,4.66-3.57s4.7-.38,4.56,3.66c-.35,9.82,0,19.66-.18,29.48-.06,3,.61,4,3.8,3.94,32.82-.12,65.63-.07,99.19-.07l-7.12-14a6.25,6.25,0,0,0-.3-1.86c-9.36-18.75-18.82-37.45-28.05-56.26-1.33-2.7-3.06-2.92-5.51-2.9-13,.06-26,.22-39,0-9.25-.18-18.48.56-27.77-.8-22-3.23-40.16-23.49-40.2-47.4,0-9.71,0-9.71-9.41-9.71-11,0-11,0-10.45,11-1.58,21.59,2.54,41.14,20.72,55.22,7.62,5.9,16,10.52,26.11,10.61a1.34,1.34,0,0,0,.85.17l1.13.82c22.13,0,44.26.18,66.38.05,3.61,0,4.81.71,4.8,4.57s-1.13,4.63-4.77,4.6c-17.14-.13-34.27.05-51.4.12-11-.18-22,0-32.46-4.21-22.12-9-36.09-25-39.32-48.77-3.05-22.42-.81-45.1-1.15-67.66-.35-24,0-47.95,0-71.92C56.08,227.3,56.07,227.3,64.05,226.82ZM274.94,473.91c-2.4-6.7-4.71-13-6.91-19.29q-16-46.19-32-92.41c-4.09-11.83-17.68-21.65-30.27-21.34-16.48.4-33,0-49.46.19-4,.06-5.41-.83-5.33-5.12.28-14.48,0-29,.17-43.46a8.74,8.74,0,0,0-2.93-7C140.4,278,133,270.12,125.1,262.68c-3.45-3.27-1.17-4.84.87-7.23,2.38-2.78,3.88-2.3,6.25.11,12,12.24,24.25,24.27,36.29,36.48a8.8,8.8,0,0,0,6.91,3c16.15-.14,32.31-.07,48.46-.07a14.65,14.65,0,0,0,4.82-.78,24.22,24.22,0,0,0,16.37-23.43c-.12-3.26-2.06-2.77-4-2.77-13.49,0-27-.08-40.47.05a8.78,8.78,0,0,1-7-2.87c-15-15.15-30.15-30.14-45.14-45.3a8.65,8.65,0,0,0-6.94-2.93c-7.16.19-14.32,0-21.48.08-13.79.14-25.91,11.48-26,24.63-.13,28.81,0,57.62-.11,86.43,0,3.07.85,4,3.94,4,6.82-.22,13.65-.07,20.48-.07,1.81,0,3.31,0,4.68,1.9,6.44,8.91,13.11,17.67,19.8,26.39,1.64,2.14,1.58,3.81-.92,4.62-2,.67-3.14,5.83-6.48,1.18-5.55-7.73-11.6-15.11-17.22-22.8-1.12-1.54-2.07-2.33-3.93-2.31-5.83.06-11.66.05-17.48,0-1.76,0-2.68.41-2.83,2.46-1.86,25.31,14.13,46.12,40.36,46.48,20.48.28,41,.19,61.45-.05,4.18,0,6.35,1.06,8.25,4.94,12.4,25.31,25.12,50.46,37.72,75.67.86,1.73,1.27,3.57,4,3.53C255.3,473.81,264.79,473.91,274.94,473.91ZM319,165c0,22.64.07,45.28-.07,67.92,0,3.22.76,4.36,4.1,4.15a116.57,116.57,0,0,1,13.48,0c5.27.25,7.83-2.62,9.63-7.1a15.93,15.93,0,0,0,.85-6.26q0-58.18,0-116.36c0-9.55-3.78-13.27-13.43-13.27-3.33,0-6.69.26-10-.07-3.73-.38-4.71.82-4.67,4.6C319.07,120.72,319,142.87,319,165Z"/><path class="cls-2" d="M277.92,453c-4.71-9.45-7.27-19.71-10.86-29.57-8.17-22.42-15.89-45-24-67.43-5-13.77-21.19-24.29-35-24.11-14.65.18-29.3-.06-44,.11-3.28,0-4.27-.87-4.14-4.14.25-6.49.35-13,0-19.47-.23-4,1.28-4.53,4.79-4.52Q269.87,304,375,304c8.65,0,17.3.1,26,.15a173.34,173.34,0,0,1-12.28,48.46c-10.27,24.9-25.85,46-45.83,63.81a164.75,164.75,0,0,1-60,34.45C281.13,451.41,279.21,451.53,277.92,453Z"/><path class="cls-2" d="M65.2,352c-.5-11-.5-11,10.45-11,9.41,0,9.4,0,9.41,9.71,0,23.91,18.16,44.17,40.2,47.4,9.29,1.36,18.52.62,27.77.8,13,.26,26,.1,39,0,2.45,0,4.18.2,5.51,2.9,9.23,18.81,18.69,37.51,28.05,56.26a6.25,6.25,0,0,1,.3,1.86c-33.65-.66-64.73-9.87-93-28.17-1.45-.93-3.41-1.51-3.8-3.63,17.13-.07,34.26-.25,51.4-.12,3.64,0,4.76-.77,4.77-4.6s-1.19-4.59-4.8-4.57c-22.12.13-44.25,0-66.38-.05l-1.13-.82a1.34,1.34,0,0,1-.85-.17c0-2.13-1.71-3.15-3-4.35a177.61,177.61,0,0,1-41.85-59.63C66.75,352.82,66.36,352.07,65.2,352Z"/><path class="cls-4" d="M45.37,44.08c8.16,0,16.33-.15,24.48.08,2.85.07,4.14-.9,5-3.5,4.4-14,12.66-25,25.46-32.3,14.42-8.25,28.87-7,43,.61A41.64,41.64,0,0,1,160,25.61c1.49,2.67,3.36,3.9,6.4,3.48,11.62-1.59,20.27,3.73,27.26,12.27,1.84,2.25,3.69,2.78,6.32,2.76,13.83-.09,27.66.05,41.48-.11,3.33,0,4.67.72,4.69,4.38s-1.08,4.81-4.82,4.77c-15.66-.2-31.32-.13-47,0-2.72,0-4.45-.66-6.11-3.12-7.67-11.44-14.85-14-28-10-3,.9-4.23-.09-5.1-2.69-5.41-16.19-21.66-26.51-37-25.25a28.81,28.81,0,0,0-14,4.66A53.05,53.05,0,0,0,84.42,40.49a13.63,13.63,0,0,0-1.35,7.26c.6,4-.68,5.48-5.06,5.43-19.15-.24-38.31-.18-57.47,0-3.47,0-4.62-1-4.56-4.5.05-3.28.71-4.76,4.4-4.65C28.71,44.25,37,44.08,45.37,44.08Z"/><path class="cls-3" d="M175.91,119.1c7.51,15.07,7.53,31.39,3.38,46.62-7.84,28.73-42.78,38.46-64.74,19.55-6.29-5.41-9.93-12.15-13.39-19.26-1.88-8.84-.67-17.81-1.14-26.7-.93-17.77,15.43-37.26,34.26-39.46C152.57,97.71,165.7,104.76,175.91,119.1ZM172,147.79v-8.27c0-18.4-14.47-31.05-31.44-31.23A31,31,0,0,0,110,132.2c-1.75,7.06-.68,14.16-.9,21.23-.38,12.12,5,21.08,15.12,27.69,16.83,10.94,39.6,2,46-16.1C172.38,159,171.62,153,172,147.79Z"/><path class="cls-2" d="M402,294.82c-19.29.05-38.58.08-57.87.2-2.29,0-3.5-.54-3.14-3a4,4,0,0,0,0-.49c.1-5.3-1.79-12.22.85-15.44,2.76-3.37,10-.91,15.21-1,7.81-.18,15.64-.29,23.44,0,3.92.18,4.58-1.17,4.56-4.75-.11-19.12.06-38.24.13-57.36,4.48,3.54,5,9.13,6.77,13.91C400.12,248.78,402.85,271.55,402,294.82Z"/><path class="cls-4" d="M480.91,50.1c0,12.85-8.16,20.49-21,21.12-10.57.51-21.72-9.18-21.22-22.3.37-10,8.79-20.52,21.09-20.69C471,28.07,482.23,37.69,480.91,50.1Zm-9-.33c0-6.76-5.63-12.58-12.12-12.44-6.66.14-11.9,5.81-11.87,12.83a11.84,11.84,0,0,0,12,11.91C467,62.07,471.88,57.09,471.92,49.77Z"/><path class="cls-4" d="M443.84,128.69c.64,3.28-.6,4.81-4,4.37a14.67,14.67,0,0,0-2,0c-7.82.09-6.91-.87-6.91,6.94,0,3.44.54,6.65-4.85,6.2-3.22-.27-4.65-1.06-4.18-4.33a2.77,2.77,0,0,0,0-.5c-.11-8.15-.12-8.32-8.57-8.22-3.51,0-4.58-1-4.54-4.53,0-3.31.77-5.13,4.42-4.56a2.8,2.8,0,0,0,.5,0c8.1-.09,8.27-.09,8.11-8.19-.08-3.57.73-4.92,4.64-5,4.11,0,4.55,1.71,4.5,5.09-.13,8,0,8,7.75,8.06a2.68,2.68,0,0,0,.49,0C442.9,123.52,444.7,124.85,443.84,128.69Z"/><path class="cls-4" d="M27.71,114.05c-7.66,0-15.33-.17-23,.07-4,.13-3.59-2.24-3.67-4.82S1.28,105,4.72,105q23.49.23,47,0c3.72,0,3.39,2.16,3.39,4.55s.33,4.65-3.39,4.56C43.7,113.91,35.7,114.05,27.71,114.05Z"/><path class="cls-3" d="M450,482.91c-3.49,0-7-.23-10.44.07s-4.87-.59-4.79-4.5c.08-3.63.83-4.83,4.65-4.66,7.78.33,15.59.29,23.37,0,4-.14,3.17,2.36,3.09,4.5s1.18,4.88-2.95,4.63C458.63,482.71,454.31,482.91,450,482.91Z"/><path class="cls-4" d="M268.8,44.08a24,24,0,0,0,3.5,0c3.74-.54,4.85,1,4.82,4.71s-1.35,4.67-4.69,4.35a31.41,31.41,0,0,0-7,0c-4.43.6-5.91-1-5.56-5.49.23-2.91,1.23-3.81,3.93-3.59C265.46,44.19,267.13,44.08,268.8,44.08Z"/><path class="cls-4" d="M77.84,105.05a25.53,25.53,0,0,0,3.5,0c3.69-.53,4.9.88,4.85,4.68,0,3.61-1.26,4.7-4.65,4.39a44.6,44.6,0,0,0-7.49,0c-3.33.25-5.33-.25-5.1-4.44.17-3.24.67-5.12,4.4-4.63A32,32,0,0,0,77.84,105.05Z"/><path class="cls-4" d="M298.87,53.07a25.53,25.53,0,0,0-3.5,0c-3.57.49-4.5-1.09-4.49-4.51s.86-5,4.47-4.56a31.42,31.42,0,0,0,7,0c3.83-.46,4.85,1.1,4.75,4.79-.08,3.18-.86,4.7-4.23,4.28A33.17,33.17,0,0,0,298.87,53.07Z"/><path class="cls-3" d="M430.88,304H428.4c-5.25,0-6.92-2.43-5.48-7.54.47-1.68,1.53-1.43,2.61-1.44,2.64,0,5.29,0,7.93,0,5.25,0,7,2.44,5.48,7.54-.37,1.3-1.09,1.45-2.11,1.45Z"/><path class="cls-3" d="M27.69,482.91h-2c-6.18,0-5.95,0-5.7-6.38.15-3.88,2.9-2.88,4.48-2.49,3.84.95,9.64-3.17,11.33,2.37C37.71,482.64,36.82,482.91,27.69,482.91Z"/><path class="cls-3" d="M483.74,482.91h-2c-6.32,0-6.4-.31-5.91-6.66.28-3.55,2.84-2.59,4.25-2.21,3.89,1,9.7-3.31,11.54,2.16C493.73,482.4,492.58,482.91,483.74,482.91Z"/><path class="cls-2" d="M365,178.83c-10.58.1-9.13,2.5-8.82-9.83C360.71,170.84,362.74,174.93,365,178.83Z"/><path class="cls-5" d="M274.94,473.91c-10.15,0-19.64-.1-29.12.07-2.74,0-3.15-1.8-4-3.53-12.6-25.21-25.32-50.36-37.72-75.67-1.9-3.88-4.07-5-8.25-4.94-20.48.24-41,.33-61.45.05-26.23-.36-42.22-21.17-40.36-46.48.15-2.05,1.07-2.47,2.83-2.46,5.82.05,11.65.06,17.48,0,1.86,0,2.81.77,3.93,2.31,5.62,7.69,11.67,15.07,17.22,22.8,3.34,4.65,4.45-.51,6.48-1.18,2.5-.81,2.56-2.48.92-4.62-6.69-8.72-13.36-17.48-19.8-26.39-1.37-1.9-2.87-1.9-4.68-1.9-6.83,0-13.66-.15-20.48.07-3.09.09-4-.88-3.94-4,.11-28.81,0-57.62.11-86.43.06-13.15,12.18-24.49,26-24.63,7.16-.08,14.32.11,21.48-.08a8.65,8.65,0,0,1,6.94,2.93c15,15.16,30.15,30.15,45.14,45.3a8.78,8.78,0,0,0,7,2.87c13.49-.13,27-.06,40.47-.05,1.95,0,3.89-.49,4,2.77A24.22,24.22,0,0,1,228.7,294.2a14.65,14.65,0,0,1-4.82.78c-16.15,0-32.31-.07-48.46.07a8.8,8.8,0,0,1-6.91-3c-12-12.21-24.28-24.24-36.29-36.48-2.37-2.41-3.87-2.89-6.25-.11-2,2.39-4.32,4-.87,7.23,7.86,7.44,15.3,15.32,23.07,22.85a8.74,8.74,0,0,1,2.93,7c-.13,14.48.11,29-.17,43.46-.08,4.29,1.29,5.18,5.33,5.12,16.48-.23,33,.21,49.46-.19,12.59-.31,26.18,9.51,30.27,21.34q16,46.23,32,92.41C270.23,460.94,272.54,467.21,274.94,473.91Z"/><path class="cls-1" d="M319,165c0-22.14.1-44.29-.09-66.42,0-3.78.94-5,4.67-4.6,3.29.33,6.65.07,10,.07,9.65,0,13.43,3.72,13.43,13.27q0,58.19,0,116.36a15.93,15.93,0,0,1-.85,6.26c-1.8,4.48-4.36,7.35-9.63,7.1a116.57,116.57,0,0,0-13.48,0c-3.34.21-4.12-.93-4.1-4.15C319,210.29,319,187.65,319,165Z"/><path class="cls-1" d="M65.2,352c1.16.09,1.55.84,2,1.85A177.61,177.61,0,0,0,109,413.46c1.28,1.2,3,2.22,3,4.35-10.1-.09-18.49-4.71-26.11-10.61C67.74,393.12,63.62,373.57,65.2,352Z"/><path class="cls-1" d="M112.88,418l1.13.82Z"/><path class="cls-1" d="M172,147.79c-.41,5.23.35,11.17-1.8,17.23-6.41,18.14-29.18,27-46,16.1-10.15-6.61-15.5-15.57-15.12-27.69.22-7.07-.85-14.17.9-21.23a31,31,0,0,1,30.59-23.91c17,.18,31.43,12.83,31.44,31.23Z"/><path class="cls-1" d="M471.92,49.77c0,7.32-4.91,12.3-12,12.3a11.84,11.84,0,0,1-12-11.91c0-7,5.21-12.69,11.87-12.83C466.29,37.19,472,43,471.92,49.77Z"/></svg>