<svg id="Capa_1" data-name="Capa 1" xmlns="http://www.w3.org/2000/svg" viewBox="0 0 167 167"><defs><style>.cls-1{fill:#fefefe;}.cls-2{fill:#059698;}</style></defs><path class="cls-1" d="M167.43,83.5c0,26.65,0,53.29.07,79.94,0,2.5-.57,3.06-3.06,3.06q-80.44-.12-160.88,0c-2.5,0-3.06-.56-3.06-3.06Q.62,83,.5,2.56C.5.06,1.06-.5,3.56-.5Q84-.38,164.44-.5c2.49,0,3.07.56,3.06,3.06C167.4,29.54,167.43,56.52,167.43,83.5Zm-37.49,3,.52,1c-1.21,1-2.5,2-3.63,3.15q-15.56,15.51-31.08,31.06c-1.73,1.74-3.68,3.51-3,6.29,1,4.17,5.77,4.91,9.3,1.4q21.23-21.15,42.38-42.35c3.24-3.23,2.92-6.23-.21-9.35q-21-21-42-42a9.55,9.55,0,0,0-1.06-1.05c-2.39-1.76-5-2-7.12.09s-1.57,4.39.78,6.68C105.61,52,116.23,62.81,127,73.47a26.33,26.33,0,0,0,3.91,2.7l-1.07,1.33H127q-49.44,0-98.87,0c-3.47,0-6.6.36-6.63,5.18,0,5.19,3.67,3.75,6.32,3.75q48.69.1,97.37,0Z"/><path class="cls-2" d="M129.94,86.5h-4.76q-48.68,0-97.37,0c-2.65,0-6.35,1.44-6.32-3.75,0-4.82,3.16-5.18,6.63-5.18q49.43,0,98.87,0h2.84l1.07-1.33a26.33,26.33,0,0,1-3.91-2.7c-10.76-10.66-21.38-21.46-32.23-32-2.35-2.29-3-4.45-.78-6.68s4.73-1.85,7.12-.09a9.55,9.55,0,0,1,1.06,1.05q21,21,42,42c3.13,3.12,3.45,6.12.21,9.35Q123.19,108.22,102,129.4c-3.53,3.51-8.33,2.77-9.3-1.4-.65-2.78,1.3-4.55,3-6.29q15.52-15.54,31.08-31.06c1.13-1.13,2.42-2.11,3.63-3.15Z"/></svg>