<svg id="Capa_1" data-name="Capa 1" xmlns="http://www.w3.org/2000/svg" viewBox="0 0 1584.62 405.77"><defs><style>.cls-1,.cls-3{fill:#afca1c;}.cls-1{opacity:0.86;}.cls-2{fill:#019597;}.cls-3{font-size:290px;font-family:MyriadPro-Regular, Myriad Pro;}.cls-4{letter-spacing:-0.01em;}</style></defs><ellipse class="cls-1" cx="201.92" cy="210.58" rx="67.31" ry="197.12" transform="translate(-88.03 178.3) rotate(-39.85)"/><ellipse class="cls-1" cx="208.99" cy="214.05" rx="197.12" ry="67.31" transform="matrix(0.59, -0.81, 0.81, 0.59, -87.11, 256.71)"/><ellipse class="cls-1" cx="214.54" cy="215.73" rx="197.12" ry="60.17"/><path class="cls-2" d="M224,165c.84,6.34-.41,13.06-7.68,17.31-1.51.88-.94,2.18-.85,3.52.41,6-3.54,10.73-9,11-6,.27-10.28-3.92-10.05-10.33a6.27,6.27,0,0,0-2.87-5.8c-4.3-3.29-6-7.77-5.9-13.08.06-2.83,0-5.65,0-8.48.26-10.77,7-16.49,19.35-16.38,10.46.09,16.94,6.4,17,16.53C224,160.77,224,162.27,224,165Zm-18.55,19.26c1.93-.81,5.12,1.37,7.23-1.51.52-.72-.08-1.63-.74-2.16-2.65-2.09-5.51-4.14-9-2.93-2.31.79-6,1.3-5.44,4.72.49,3.25,3.8,1.36,5.83,1.87A12.75,12.75,0,0,0,205.44,184.27Z"/><path class="cls-2" d="M271,173.57c0,1.94,0,2.44,0,2.93-.93,10-16.32,22.26-26.22,20.68-2.08-.33-2.92.38-4.1,1.72-4.43,5-10.68,5.52-14.83,1.35s-3.81-9.9,1.11-14.41c1.69-1.55,2.34-3,2-5.17-1.11-7,1.72-12.21,7.21-16.38,4.17-3.17,7.22-8,13.07-8.63C259.7,154.46,270.85,164.34,271,173.57Zm-37.38,8.61c-2.15-.16-3.58.49-2,3a26.58,26.58,0,0,0,7.22,7.42c2,1.42,3.53.21,3.53-2.2C242.41,186.46,237.93,182.24,233.63,182.18Z"/><path class="cls-2" d="M268.72,238c-7.59.47-14.43-.73-18.68-7.85-1-1.71-2.22-1.28-3.79-1.08-6.05.78-11.09-3.41-11.27-9.13s4.24-10.28,10.49-9.91c2.72.16,4.48-.44,5.72-2.77a6.4,6.4,0,0,1,.92-1.17c5.49-5.92,23.11-7,30.49-1.92,6.87,4.76,9.21,16.77,4.71,25.38C283.35,237.09,276.39,238.55,268.72,238Zm-25.27-18.22c0,4.9.76,7.44,2.22,7.5,2.26.09,5.17-5.53,4.64-9a4.22,4.22,0,0,0-.2-1c-1-2.28-2-5.32-4.62-5-2,.23-1.93,3.37-2,5.48C243.43,218.43,243.46,219.09,243.45,219.75Z"/><path class="cls-2" d="M274.07,266.69c-.07,6.77-5.95,14.79-12.9,17.6-7.51,3-13.26,1.65-19.27-4.72-2.28-2.42-4.43-4.95-6.63-7.43a9.27,9.27,0,0,1-2.72-5.77c-.07-5.68-.89-10.72-4.62-15.57-2.65-3.44-.21-8.76,3.62-11.12,4.15-2.56,9.06-2.22,12.23,1.45,2,2.3,3.81,3.44,6.76,2.37a4.86,4.86,0,0,1,2-.05C261.46,244,274.16,257.75,274.07,266.69Zm-37.51-9.12c4.77-.13,9.38-4.45,9.92-8.85.35-2.91-1.06-3.86-3.48-2.54a21.44,21.44,0,0,0-8.19,7.75C233,256.87,234.7,257.34,236.56,257.57Z"/><path class="cls-2" d="M189.71,280.45c-.57-7.81.29-14.7,7.54-19,1.64-1,1.07-2.57,1.05-4-.09-6.52,3.87-11.05,9.52-11,5.93.07,10.31,5,9.54,11.41-.28,2.36.65,3.24,2.18,4.37,4.6,3.38,7,7.81,6.45,13.69-.27,3.3-.09,6.63,0,10a13.29,13.29,0,0,1-6.24,11.76c-7,4.79-14.59,4.81-21.76,1.19C190.49,295,188.74,288,189.71,280.45Zm16.88-21.59c-2,1.17-6.81-.62-6.87,2.76,0,3.06,4.26,4.07,7.49,4.13,3,.06,6.38-1,6.59-4,.24-3.37-3.84-1.75-5.78-2.86C207.77,258.74,207.37,258.86,206.59,258.86Z"/><path class="cls-2" d="M139.56,265.42a30.16,30.16,0,0,1,.61-3.92c2.34-8.41,16.33-18.49,25.09-17.86a5.22,5.22,0,0,0,5-2.2c4.28-4.95,10.59-5,14.77-.47,3.84,4.17,3.13,10.57-1.8,14.27-1.54,1.16-2.1,2.05-1.64,4.05,1.47,6.43-.68,11.73-5.64,16a41.36,41.36,0,0,0-4.81,4.32c-8.4,9.8-21.3,7-28.91-5.2A15.61,15.61,0,0,1,139.56,265.42Zm32.73-16.79c.24,5.17,2.9,7.86,7.49,8.93,1.12.26,2.31,1,3.16-.22a2.47,2.47,0,0,0-.41-3.19c-2.27-2.4-4.61-4.73-7-7a2.11,2.11,0,0,0-2.26-.63C172.06,246.93,172.34,248,172.29,248.63Z"/><path class="cls-2" d="M144.91,201.69c7.9-1,14.59.85,19,8,.87,1.41,2.21,1.08,3.56,1,7.15-.22,12.32,4.2,11.87,10.08s-5.72,9.75-12.56,8.66a3.1,3.1,0,0,0-3.65,1.52c-3.6,5.25-8.64,7.5-15,7.06-2.31-.16-4.65,0-7,0-9.13-.08-15-4.81-16.86-13.66-2-9.31,1.79-17.84,9.38-21.49C137.33,201.13,141.17,201.85,144.91,201.69ZM166,219.32c-.28-2,.43-6.24-2.22-6.23-3.07,0-3.8,4-3.75,7.1v1c0,2.67,1.05,5.74,3.5,5.72,2.62,0,2.07-3.49,2.45-5.64A12.81,12.81,0,0,0,166,219.32Z"/><path class="cls-2" d="M138.9,175.66c0-7.52,5.8-15.26,13.87-18.37,6.76-2.61,12.2-1,18.17,5.38,3.27,3.51,7.79,6.49,8.77,11.26,1.32,6.36,1.85,12.52,6.39,18,2.64,3.18-.1,8.8-3.84,11.09-3.95,2.42-8.74,2-11.73-1.56-2.23-2.66-4.32-4.41-7.95-2.84a6.29,6.29,0,0,1-3,.1C151.42,197.88,138.94,184,138.9,175.66Zm28.75,17.76c.1.46,0,1.65.6,2.26.79.85,1.91.08,2.65-.48a26.55,26.55,0,0,0,6.85-7c1.36-2.21.35-2.95-1.91-2.85C172.36,185.49,168.2,189.34,167.65,193.42Z"/><text class="cls-3" transform="translate(434.85 272.74)">psypea<tspan class="cls-4" x="866.5" y="0">c</tspan><tspan x="994.68" y="0">e</tspan></text><text/><text/></svg>