<svg id="Capa_1" data-name="Capa 1" xmlns="http://www.w3.org/2000/svg" viewBox="0 0 1500.58 305.04"><defs><style>.cls-1{fill:#fcfcfc;}.cls-2{fill:#afcb18;}.cls-3{fill:#009597;}.cls-4{fill:#f5e8ee;}.cls-5{fill:#8a6ca5;}</style></defs><path class="cls-1" d="M281.61,146.92q0,73,.08,145.92c0,3-.6,3.58-3.58,3.58q-146.42-.15-292.84,0c-3,0-3.58-.6-3.58-3.58q.15-146.41,0-292.84c0-3,.6-3.58,3.58-3.58q146.43.15,292.84,0c3,0,3.59.6,3.58,3.58Q281.52,73.46,281.61,146.92ZM199.43,277.14l1.22-.73,4.12-2c1.95,3.09,3.11-.85,4-.57,5.76,1.76,4.8-2.18,4.89-5.32,3.14-3,6.53-5.74,9.34-9,4-4.62,8.43-9,10-15.25,1.7-6.62-1.08-10.05-7.8-9.65-1,.06-2,.33-3,.37-9.4.39-18.28-1.41-25.82-7.25-2.52-1.95-5.09-5.27-3.36-8.61,1.54-3,4.78-.64,7.27-.3.81.11,1.6.45,2.41.62,16.33,3.3,30.29-.79,41.3-13.55,10.84-12.56,12.39-29.88,4.59-45.85-2.33-4.75-5.9-6.59-10.85-6.09-4.47.45-8.89,1.3-13.35,1.82-9.33,1.08-17.85-1-25.26-6.93-2.44-2-5.92-4.37-4.25-7.59s5.36-.6,8.14-.12c1.31.22,2.6.61,3.9.85,19.67,3.61,38.16-12,37.57-32-.45-15.2-9.2-25-22.05-31.42-3.06-1.54-4-2.9-3.72-6.29,1.08-10.86-4-18.78-12.81-24.56-2.67-1.74-5.72-3.27-8.93-1.8s-3,5-3.07,7.9c-.21,7.49-.06,15-.08,22.49a87.87,87.87,0,0,1-1.28,16.9c-2.83,14.45-9.78,25.35-24.93,29.28.25-2.59-3-1.43-3.56-3.2.67-1.18,3.14-1.15,2.05-3.29l.1,0c1.25.08,1.33-.78,1.36-1.68,4.18-5.71,5.94-12.2,6.16-19.16.28-8.65.54-17.3.73-25.94.23-11.05,2.66-21,12.34-28,4.27-3.09,4.34-7.06,1.17-11.38-8.37-11.44-19.72-18.07-33.59-20.5-9.83-1.73-12.37.39-12.43,10.41-.09,15.65-.3,31.3-.05,46.94.3,18.79-.82,37.61.85,56.38-1.4,1.77-.42,3.58-.07,5.38q.41,38.25.83,76.52c0,3.8.24,7.6.37,11.41-.47,21.85.13,43.69.68,65.53.05,2,.25,4.11,3.05,4.24l1,.45c1.37,2.5,2.72,2.5,4.08,0l5-.08c3,1,6,2.42,9.81,1.14-.85-1.39-2.15-2.43-1.79-4,1.22-.76,2.3-1.6,1.88-3.3.46-2.63,1.78-4.25,4.69-4l.33.18.91.71.07.08c.53,1.73-.73,5.78,2.36,4.43,3.55-1.55,6-.52,9.11.23s6.6.7,8.47-3l0,0q4.05,1.95,6-2.12Zm-133.86-49a4.6,4.6,0,0,0-2.89,2.17l0,0a46.07,46.07,0,0,1-25.3,4.38c-3.45-.35-7.18-.31-7.78,4.59h.05a3.3,3.3,0,0,0,0,4.26c-.18,2.12.83,3.88,1.86,5.57a66.82,66.82,0,0,0,28.19,26c11.77,5.69,23.84,9.28,34.51-2.74,1.62-1.83,2.65-.51,2.57,1.47a9.6,9.6,0,0,1-.7,3.88c-2.35,4.57-.39,6.36,4,6.77,5.68,2.42,11.36,3.69,17,0,1.65-12.37,1.38-24.8,1.25-37.22.17-10.82.18-21.64.54-32.45.9-26.8.78-53.6.69-80.4,1-4.61-.24-6.86-5.62-7.23a71.74,71.74,0,0,1-23.57-6c-9.43-4.07-15.82-10.76-18.74-20.72A70.1,70.1,0,0,1,68.6,80.35c0-9,.17-18-.07-27-.21-7.91-4.28-10.14-11.12-6.11-9.52,5.62-14.73,13.85-13.78,25.17.26,3.14-.41,4.57-3.45,5.9-15.29,6.68-24.53,22.53-22,37.18,3.36,19.79,22.34,31,42.67,25.32,1.84-.51,4.27-2.67,5.81-.07,1.38,2.35-.52,4.46-2.08,6.18-4.3,4.73-9.79,7.24-16,8.55-7.77,1.64-15.2-.76-22.76-1.59-4.27-.48-8.19.06-10.59,3.89-12,19.14-5.81,44.29,10.38,54.67l2.1,1.46.93.52c10.44,6.71,21.53,8,33.26,4.06l0,.09c1-.11,2-.28,2.95-.3,1.72,0,3.87-1.11,4.92,1s-.31,3.79-1.56,5.39c-.9,1.16-1.77,2.36-2.65,3.54ZM120.66,59.69c-.56-14.77,1-29.58-.75-44.33-.62-5.27-3.15-7.2-8.46-6.53-1.31.17-2.63.38-3.93.63-14,2.75-25.37,9.64-33.58,21.38-3.51,5-2.87,7.66,2.26,11.09a25.34,25.34,0,0,1,7.64,8.37c4.51,7.47,3.65,15.86,4.4,24,.89,9.57-.76,19.25,1.35,28.8,1.82,8.24,6.27,14.21,14.33,17,3.59,1.24,7.42,1.75,11.1,2.77,4,1.1,4.94-.67,4.93-4.32C119.91,98.9,121.29,79.31,120.66,59.69Zm49.75,221.06c-.12.27-.39.6-.32.79s.5.25.77.37c.12-.27.39-.6.31-.79S170.68,280.86,170.41,280.75Z"/><path class="cls-2" d="M144,216.47c-.13-3.81-.33-7.61-.37-11.41q-.45-38.26-.83-76.52c2.11-.39,4.23-.8,6.35-1.15,6.35-1,12.79-1.7,18.59-4.86,15.15-3.93,22.1-14.83,24.93-29.28a87.87,87.87,0,0,0,1.28-16.9c0-7.5-.13-15,.08-22.49.08-2.87-.24-6.38,3.07-7.9s6.26.06,8.93,1.8c8.8,5.78,13.89,13.7,12.81,24.56-.33,3.39.66,4.75,3.72,6.29,12.85,6.47,21.6,16.22,22.05,31.42.59,19.95-17.9,35.58-37.57,32-1.3-.24-2.59-.63-3.9-.85-2.78-.48-6.41-3.19-8.14.12s1.81,5.62,4.25,7.59c7.41,5.95,15.93,8,25.26,6.93,4.46-.52,8.88-1.37,13.35-1.82,4.95-.5,8.52,1.34,10.85,6.09,7.8,16,6.25,33.29-4.59,45.85-11,12.76-25,16.85-41.3,13.55-.81-.17-1.6-.51-2.41-.62-2.49-.34-5.73-2.69-7.27.3-1.73,3.34.84,6.66,3.36,8.61,7.54,5.84,16.42,7.64,25.82,7.25,1,0,2-.31,3-.37,6.72-.4,9.5,3,7.8,9.65-1.59,6.21-6,10.63-10,15.25-2.81,3.27-6.2,6-9.34,9l-8.91,5.89-4.12,2-1.22.73.06-.08a12,12,0,0,0-6,2.12l0,0c-6.72.35-13.52,1.51-19.94-1.69l-.07-.08-.91-.71-.33-.18c-2.08-1.48-3.26-6.14-6-4.12-2.07,1.5-.61,5.56,1.35,8.09.42,1.7-.66,2.54-1.88,3.3l-8,2.84-5,.08h-4.08l-1-.45a13.63,13.63,0,0,1-2.05-7.87c.17-19.54.18-39.08-.93-58.6C144.63,218.62,144.84,217.42,144,216.47Z"/><path class="cls-3" d="M100.16,284.47c-4.44-.41-6.4-2.2-4-6.77a9.6,9.6,0,0,0,.7-3.88c.08-2-1-3.3-2.57-1.47-10.67,12-22.74,8.43-34.51,2.74a66.82,66.82,0,0,1-28.19-26c-1-1.69-2-3.45-1.86-5.57,0-1.42,0-2.84,0-4.26h0c2.46,0,3-3.1,5.87-3,7.64.21,15.29.57,22.86-1.72,2.66-.81,4.09-1.56,4.34-4.23l0,0c1.53,0,3.09.1,2.89-2.17l0,.05c2.43-.11,3.92-2,5.11-3.53a6.35,6.35,0,0,0,.12-7.82c-1.25-1.66-7.45-.22-8.89,1.72l0-.09c-8.27-.77-16.72,1.26-24.84-2.05-2.63-1.07-5.24-2.93-8.42-2l-.93-.52c-.2-1.21-1-1.49-2.1-1.46C9.37,202.08,3.21,176.93,15.18,157.79c2.4-3.83,6.32-4.37,10.59-3.89,7.56.83,15,3.23,22.76,1.59,6.21-1.31,11.7-3.82,16-8.55,1.56-1.72,3.46-3.83,2.08-6.18-1.54-2.6-4-.44-5.81.07-20.33,5.68-39.31-5.53-42.67-25.32C15.65,100.86,24.89,85,40.18,78.33c3-1.33,3.71-2.76,3.45-5.9-1-11.32,4.26-19.55,13.78-25.17,6.84-4,10.91-1.8,11.12,6.11.24,9,.11,18,.07,27a70.1,70.1,0,0,0,3.16,20.12c2.92,10,9.31,16.65,18.74,20.72a71.74,71.74,0,0,0,23.57,6c5.38.37,6.57,2.62,5.62,7.23-2.77.5-2,2.71-2,4.37q-.06,52.35,0,104.69c0,1.3-.29,2.68.75,3.79.13,12.42.4,24.85-1.25,37.22Z"/><path class="cls-3" d="M120.66,59.69c.63,19.62-.75,39.21-.71,58.82,0,3.65-1,5.42-4.93,4.32-3.68-1-7.51-1.53-11.1-2.77-8.06-2.8-12.51-8.77-14.33-17-2.11-9.55-.46-19.23-1.35-28.8-.75-8.09.11-16.48-4.4-24a25.34,25.34,0,0,0-7.64-8.37c-5.13-3.43-5.77-6.08-2.26-11.09,8.21-11.74,19.6-18.63,33.58-21.38,1.3-.25,2.62-.46,3.93-.63,5.31-.67,7.84,1.26,8.46,6.53C121.63,30.11,120.1,44.92,120.66,59.69Z"/><path class="cls-2" d="M142.82,123.16c-1.67-18.77-.55-37.59-.85-56.38-.25-15.64,0-31.29.05-46.94.06-10,2.6-12.14,12.43-10.41,13.87,2.43,25.22,9.06,33.59,20.5,3.17,4.32,3.1,8.29-1.17,11.38-9.68,7-12.11,16.93-12.34,28-.19,8.64-.45,17.29-.73,25.94-.22,7-2,13.45-6.16,19.16a2,2,0,0,0-1.36,1.68l-.09,0C159.07,120.61,151.17,122.61,142.82,123.16Zm2.43-62h-1v56.52h1Z"/><path class="cls-3" d="M118.46,247.28c-1-1.11-.75-2.49-.75-3.79q0-52.35,0-104.69c0-1.66-.81-3.87,2-4.37.09,26.8.21,53.6-.69,80.4C118.64,225.64,118.63,236.46,118.46,247.28Z"/><path class="cls-4" d="M142.82,123.16c8.35-.55,16.25-2.55,23.37-7.12,1.08,2.14-1.39,2.11-2.06,3.29.54,1.77,3.81.61,3.56,3.2-5.8,3.16-12.24,3.82-18.59,4.86-2.12.35-4.24.76-6.35,1.15C142.4,126.74,141.42,124.93,142.82,123.16Zm1.59,1.66-.36.83c.28.12.61.39.82.32s.26-.51.38-.79Z"/><path class="cls-2" d="M144,216.47c.89.95.68,2.15.75,3.3,1.11,19.52,1.1,39.06.93,58.6a13.63,13.63,0,0,0,2.05,7.87c-2.8-.13-3-2.25-3.05-4.24C144.08,260.16,143.48,238.32,144,216.47Z"/><path class="cls-3" d="M62.7,230.32c-.25,2.67-1.68,3.42-4.34,4.23-7.57,2.29-15.22,1.93-22.86,1.72-2.84-.08-3.41,3.06-5.87,3,.59-4.9,4.32-4.94,7.77-4.59A46.07,46.07,0,0,0,62.7,230.32Z"/><path class="cls-3" d="M28.59,214.44c3.18-.92,5.79.94,8.42,2,8.12,3.31,16.57,1.28,24.84,2.05C50.12,222.42,39,221.15,28.59,214.44Z"/><path class="cls-4" d="M173.62,277.46c6.42,3.2,13.22,2,19.94,1.69-1.87,3.67-5.28,3.75-8.47,3s-5.56-1.78-9.11-.23C172.89,283.24,174.15,279.19,173.62,277.46Z"/><path class="cls-3" d="M61.87,218.59c1.44-1.94,7.64-3.38,8.89-1.72a6.35,6.35,0,0,1-.12,7.82c-1.19,1.57-2.68,3.42-5.11,3.53.88-1.18,1.75-2.38,2.65-3.54,1.25-1.6,2.58-3.35,1.56-5.39s-3.2-1-4.92-1C63.84,218.31,62.85,218.48,61.87,218.59Z"/><path class="cls-4" d="M167.62,280.46c-2-2.53-3.42-6.59-1.35-8.09,2.78-2,4,2.64,6,4.12C169.4,276.21,168.08,277.83,167.62,280.46Z"/><path class="cls-4" d="M204.77,274.43l8.91-5.89c-.09,3.14.87,7.08-4.89,5.32C207.88,273.58,206.72,277.52,204.77,274.43Z"/><path class="cls-3" d="M100.16,284.47l17,0C111.52,288.16,105.84,286.89,100.16,284.47Z"/><path class="cls-4" d="M157.72,286.6l8-2.84c-.36,1.55.94,2.59,1.79,4C163.69,289,160.73,287.6,157.72,286.6Z"/><path class="cls-4" d="M193.54,279.18a12,12,0,0,1,6-2.12Q197.58,281.13,193.54,279.18Z"/><path class="cls-4" d="M148.64,286.69h4.08C151.36,289.19,150,289.19,148.64,286.69Z"/><path class="cls-5" d="M65.57,228.17c.2,2.27-1.36,2.2-2.89,2.17A4.6,4.6,0,0,1,65.57,228.17Z"/><path class="cls-5" d="M29.67,239.29c0,1.42,0,2.84,0,4.26A3.3,3.3,0,0,1,29.67,239.29Z"/><path class="cls-4" d="M170.41,280.75c.27.11.68.17.76.37s-.19.52-.31.79c-.27-.12-.69-.18-.77-.37S170.29,281,170.41,280.75Z"/><path class="cls-4" d="M166.28,116.07a2,2,0,0,1,1.36-1.68C167.61,115.29,167.53,116.15,166.28,116.07Z"/><path class="cls-5" d="M25.56,212.46c1.06,0,1.9.25,2.1,1.46Z"/><path class="cls-4" d="M172.64,276.67l.91.71Z"/><path class="cls-4" d="M199.43,277.14l1.22-.73Z"/><path class="cls-2" d="M145.25,61.19v56.52h-1V61.2Z"/><path class="cls-1" d="M144.41,124.82l.84.36c-.12.28-.19.71-.38.79s-.54-.2-.82-.32Z"/><path class="cls-2" d="M289,279.58l23.72-125.13c2.65-14.14,5.61-33.86,7.07-46.58h27.76l-2.94,20.53h.5c11.33-15.16,27.66-23.53,44.6-23.53,28.47,0,43.1,22.58,43.1,48.1,0,43.58-32.09,79.61-75.54,79.61-13.16,0-22.55-3.07-27.34-5.86h-.5l-10,52.86Zm45.49-77.45c5.15,4.43,12.73,7,22.5,7,22.5,0,43.79-24,43.79-54.6,0-11.48-5.93-25.18-22.11-25.18-16.41,0-34.27,16.9-40.1,48.66Z"/><path class="cls-2" d="M450.32,201.1c7.07,3.75,20.83,9,32.57,9,12.31,0,19.58-6.63,19.58-14.44,0-7.16-4-11.91-17.23-18-15.54-7-26.9-17.48-26.9-32.42,0-24.09,21.87-40.34,51.77-40.34,13.88,0,25.37,3.25,31.11,6.68l-7.81,21.81a58.33,58.33,0,0,0-25.65-6c-10.91,0-18.71,5.56-18.71,13.47,0,6.56,5.68,11.28,17.51,16.82,13.9,6.36,27.72,15.91,27.72,32.92,0,27-23.88,42-54.42,42-15.63,0-30.07-4.43-37.35-9.88Z"/><path class="cls-2" d="M591,107.87l11.92,57.21c2.86,13.86,4.69,23,6,30.66h.61c2.93-6.72,6.08-14.65,12.3-28.41l27.65-59.46H682l-45.8,87.2c-15.84,30.39-29.47,51.64-46.11,68C574,279,555.24,285.25,547,286.43l-5.56-26.36a72,72,0,0,0,22.83-10.44,79.39,79.39,0,0,0,22.59-24.81c1.14-1.9,1-3.29.5-5.64L559.07,107.87Z"/><path class="cls-2" d="M674.74,279.58l25-131.25c2.5-13,4.75-25.75,6.5-38.75h11.25l-4.5,27.5h.5c12.75-19,31.5-30.5,51-30.5,29.75,0,41.25,24,41.25,45.25,0,45-36.5,80.75-76.25,80.75-18,0-27.25-3.5-32.75-6h-.5l-9.75,53Zm24-64.5c7,5,18,7.75,31.75,7.75,30.75,0,63-27.75,63-70.25,0-14.75-7.5-36-32.5-36-19.25,0-47.5,19.75-55.75,63.75Z"/><path class="cls-2" d="M910.23,222.58c-5.5,3.5-19.5,10-40.5,10-33,0-46-24.5-46-48.75,0-37.5,30.25-77.25,67.25-77.25,24.25,0,34.75,14.25,34.75,28.75,0,34-43.75,38.5-89,37.5-2,7.25-1,21,2.25,29,5.75,14,17.5,20.75,32.25,20.75a69.4,69.4,0,0,0,35.5-9.25ZM889,116.58c-25,0-44.75,25.5-50.75,46.5,40.25.75,75.5-3.25,75.5-26.75C913.73,123.08,903,116.58,889,116.58Z"/><path class="cls-2" d="M1029.73,229.58c-.5-7.5,1.25-23,3.75-39.25h-.5c-14.5,29.75-34.25,42.25-56.5,42.25-24.25,0-37.75-19.25-37.75-40.25,0-44.75,37.5-85.75,87-85.75a134.9,134.9,0,0,1,31.75,3.75l-11.25,60c-5,26.5-6,47.5-5.25,59.25Zm14.5-110.5c-3.25-1.25-9.25-2.5-20.25-2.5-38,0-73.25,31.25-73.25,74.5,0,13.25,5,31.75,28.25,31.75,23.75,0,51.25-28.5,58-64.75Z"/><path class="cls-2" d="M1166.48,223.08c-5.25,2.75-20,9.5-41,9.5-34.75,0-48-24-48-45.25,0-43.25,33.25-80.75,75.25-80.75,14.5,0,27.75,5.25,30.5,7.75l-4.5,9.75a59.25,59.25,0,0,0-27.75-6.75c-36.75,0-61.5,34.5-61.5,67.75,0,21.75,11.75,37.5,38,37.5a74.65,74.65,0,0,0,35.5-9.25Z"/><path class="cls-2" d="M1278,222.58c-5.5,3.5-19.5,10-40.5,10-33,0-46-24.5-46-48.75,0-37.5,30.25-77.25,67.25-77.25,24.25,0,34.75,14.25,34.75,28.75,0,34-43.75,38.5-89,37.5-2,7.25-1,21,2.25,29,5.75,14,17.5,20.75,32.25,20.75a69.4,69.4,0,0,0,35.5-9.25Zm-21.25-106c-25,0-44.75,25.5-50.75,46.5,40.25.75,75.5-3.25,75.5-26.75C1281.48,123.08,1270.73,116.58,1256.73,116.58Z"/><text/></svg>