<svg id="Capa_1" data-name="Capa 1" xmlns="http://www.w3.org/2000/svg" viewBox="0 0 531 88"><defs><style>.cls-1,.cls-5{fill:#afcb18;}.cls-2{fill:#2a9a9c;}.cls-3{fill:#fdfefc;}.cls-4{fill:#fcfdf8;}.cls-5{font-size:90px;font-family:Rosario-BoldItalic, Rosario;font-weight:700;font-style:italic;}.cls-6{letter-spacing:-0.02em;}.cls-7{font-family:Rosario-Italic, Rosario;font-weight:400;}</style></defs><path class="cls-1" d="M59.68.55c4.9,1.5,5.2,4.7,4.2,9.2-2.7,11.6-8.6,20.6-19.6,25.9-4.6,2.2-5.9,1.7-6-3.1-.2-10.7-.2-21.4,1.4-32Z"/><path class="cls-2" d="M25.78.55a5.78,5.78,0,0,1,1.9,4.7c-.1,9,0,17.9-.1,26.9,0,4.6-1.2,5.3-5.4,3.7-6.6-2.6-11.1-7.8-15.4-13.1-1.2-1.5-.7-3-.4-4.7,1.8-8.8,7.7-13.9,15.4-17.5Z"/><path class="cls-1" d="M70.28,19.85c0,13.4.3,26.9-.1,40.3-.2,6.4-6.1,11.8-13.3,13-6.6,1.1-13.3.9-19.9.8-3-.1-4.5-1.4-4.5-4.7.1-6.1.1-12.3,0-18.4,0-2.1.3-4,2.8-4.6C50.88,42.65,61.88,33.15,70.28,19.85Z"/><path class="cls-2" d="M6.88,56V43.55c0-2.9,1-4.2,3.9-2.7,4.6,2.4,9.2,4.6,14.3,5.7,1.9.4,2.5,1.9,2.5,3.8,0,5.6,0,11.3-.1,16.9-.1,4-2.2,6.1-6.3,6.1-2,0-4,0-6,.1-8.4,0-8.8-.4-8.4-9a60.47,60.47,0,0,0,.1-8.5Z"/><path class="cls-3" d="M302.88,49c0-5.1-1.8-10.6,4.7-13.8,6.7-3.3,14.2-1.6,17.4,5.2a24.27,24.27,0,0,1,.2,21.2c-2.4,5.3-7.4,7.7-13.1,6.8-4.9-.8-8.3-4.3-9.1-9.9A75.49,75.49,0,0,1,302.88,49Z"/><path class="cls-4" d="M252.68,51.05c-.1-4.5.5-8.3,2.3-11.7s4.5-5.2,8.5-5c3.8.2,6.4,2,7.7,5.3a28.07,28.07,0,0,1-.1,22.2,8.18,8.18,0,0,1-7.9,5.1,8.51,8.51,0,0,1-8-5A20.21,20.21,0,0,1,252.68,51.05Z"/><text class="cls-5" transform="translate(84.68 66.43)"><tspan class="cls-6">p</tspan><tspan x="45.99" y="0">sy</tspan><tspan class="cls-7" x="117.09" y="0">peace</tspan></text><text/></svg>